Perun-SemiBold.ufo
<glyph name="exclam" format="2">
  <advance width="333"/>
  <unicode hex="0021"/>
  <outline>
    <contour>
      <point x="226.667" y="481.333" type="line"/>
      <point x="176" y="127.333" type="line"/>
      <point x="110.667" y="159" type="line"/>
      <point x="126.667" y="513" type="line"/>
    </contour>
    <contour>
      <point x="223.333" y="240.667" type="line"/>
      <point x="130" y="56.3333" type="line"/>
      <point x="109" y="133" type="line"/>
      <point x="189" y="317.333" type="line"/>
    </contour>
  </outline>
</glyph>
<glyph name="quotedbl" format="2">
  <advance width="496"/>
  <unicode hex="0022"/>
  <outline>
    <contour>
      <point x="248.333" y="432.667" type="line"/>
      <point x="223.333" y="722.667" type="line"/>
      <point x="358.667" y="722.667" type="line"/>
      <point x="333.667" y="432.667" type="line"/>
    </contour>
    <contour>
      <point x="163.667" y="432" type="line"/>
      <point x="138.667" y="722" type="line"/>
      <point x="274" y="722" type="line"/>
      <point x="249" y="432" type="line"/>
    </contour>
  </outline>
</glyph>
<glyph name="dollar" format="2">
  <advance width="568"/>
  <unicode hex="0024"/>
  <outline>
    <contour>
      <point x="311.667" y="95.6667" type="line"/>
      <point x="376.333" y="101"/>
      <point x="416.333" y="139.333"/>
      <point x="416.333" y="197.667" type="curve" smooth="yes"/>
      <point x="416.333" y="248.667"/>
      <point x="385" y="280.333"/>
      <point x="311.667" y="304.333" type="curve"/>
    </contour>
    <contour>
      <point x="46" y="522.667" type="curve" smooth="yes"/>
      <point x="46" y="633.667"/>
      <point x="136.667" y="721.667"/>
      <point x="256.333" y="730.333" type="curve"/>
      <point x="256.333" y="797.667" type="line"/>
      <point x="311.667" y="797.667" type="line"/>
      <point x="311.667" y="731.667" type="line"/>
      <point x="443.333" y="726.333"/>
      <point x="516.333" y="651.667"/>
      <point x="516.333" y="523.333" type="curve"/>
      <point x="392.667" y="523.333" type="line"/>
      <point x="392.667" y="585.333"/>
      <point x="364.667" y="621.333"/>
      <point x="311.667" y="626.667" type="curve"/>
      <point x="311.667" y="419.333" type="line"/>
      <point x="445.333" y="382.333"/>
      <point x="538" y="340"/>
      <point x="538" y="204.333" type="curve" smooth="yes"/>
      <point x="538" y="87"/>
      <point x="444.667" y="-1.33333"/>
      <point x="311.667" y="-10" type="curve"/>
      <point x="311.667" y="-101" type="line"/>
      <point x="256.333" y="-101" type="line"/>
      <point x="256.333" y="-10" type="line"/>
      <point x="116.667" y="-3.33333"/>
      <point x="31" y="85"/>
      <point x="31" y="223.333" type="curve"/>
      <point x="154.667" y="223.333" type="line"/>
      <point x="154.667" y="141"/>
      <point x="187.667" y="100.333"/>
      <point x="256.333" y="94.3333" type="curve"/>
      <point x="256.333" y="315.667" type="line"/>
      <point x="107.333" y="357.333"/>
      <point x="46" y="417"/>
    </contour>
    <contour>
      <point x="256.333" y="437.333" type="curve"/>
      <point x="256.333" y="626.667" type="line"/>
      <point x="203.667" y="618"/>
      <point x="167.667" y="580"/>
      <point x="167.667" y="533" type="curve" smooth="yes"/>
      <point x="167.667" y="490.667"/>
      <point x="197" y="459.667"/>
    </contour>
  </outline>
</glyph>
<glyph name="percent" format="2">
  <advance width="976"/>
  <unicode hex="0025"/>
  <outline>
    <contour>
      <point x="234.333" y="-14" type="line"/>
      <point x="659.667" y="736" type="line"/>
      <point x="749.667" y="736" type="line"/>
      <point x="322.667" y="-14" type="line"/>
    </contour>
    <contour>
      <point x="42" y="526.997" type="curve" smooth="yes"/>
      <point x="42" y="643.357"/>
      <point x="119" y="728"/>
      <point x="234.667" y="728" type="curve" smooth="yes"/>
      <point x="350.667" y="728"/>
      <point x="426" y="643.026"/>
      <point x="426" y="526.667" type="curve" smooth="yes"/>
      <point x="426" y="409.64"/>
      <point x="351.333" y="326.667"/>
      <point x="235.667" y="326.667" type="curve" smooth="yes"/>
      <point x="122.333" y="326.667"/>
      <point x="42" y="407.992"/>
    </contour>
    <contour>
      <point x="141" y="527.333" type="curve" smooth="yes"/>
      <point x="141" y="452.196"/>
      <point x="163.667" y="394.333"/>
      <point x="234" y="394.333" type="curve" smooth="yes"/>
      <point x="304" y="394.333"/>
      <point x="327" y="452.532"/>
      <point x="327" y="526.336" type="curve" smooth="yes"/>
      <point x="327" y="601.138"/>
      <point x="303" y="660.333"/>
      <point x="232.667" y="660.333" type="curve" smooth="yes"/>
      <point x="163" y="660.333"/>
      <point x="141" y="602.471"/>
    </contour>
    <contour>
      <point x="549" y="192.995" type="curve" smooth="yes"/>
      <point x="549" y="309.381"/>
      <point x="624.667" y="394"/>
      <point x="742" y="394" type="curve" smooth="yes"/>
      <point x="856" y="394"/>
      <point x="933.667" y="312.667"/>
      <point x="933.667" y="193.661" type="curve" smooth="yes"/>
      <point x="933.667" y="74.9893"/>
      <point x="855.333" y="-6"/>
      <point x="740.667" y="-6" type="curve" smooth="yes"/>
      <point x="623.333" y="-6"/>
      <point x="549" y="77.2747"/>
    </contour>
    <contour>
      <point x="646" y="194" type="curve" smooth="yes"/>
      <point x="646" y="119.728"/>
      <point x="669.667" y="61.6667"/>
      <point x="740.667" y="61.6667" type="curve" smooth="yes"/>
      <point x="811.667" y="61.6667"/>
      <point x="834.667" y="119.728"/>
      <point x="834.667" y="194" type="curve" smooth="yes"/>
      <point x="834.667" y="268.272"/>
      <point x="811.667" y="326.333"/>
      <point x="740.667" y="326.333" type="curve" smooth="yes"/>
      <point x="669.667" y="326.333"/>
      <point x="646" y="268.272"/>
    </contour>
  </outline>
</glyph>
<glyph name="one" format="2">
  <advance width="568"/>
  <unicode hex="0031"/>
  <outline>
    <contour>
      <point x="276" y="0" type="line"/>
      <point x="276" y="586.667" type="line"/>
      <point x="229.667" y="550"/>
      <point x="173.667" y="521.333"/>
      <point x="110" y="497.667" type="curve"/>
      <point x="110" y="607.333" type="line"/>
      <point x="170.667" y="634.333"/>
      <point x="241" y="680"/>
      <point x="280.333" y="722" type="curve"/>
      <point x="397" y="722" type="line"/>
      <point x="397" y="0" type="line"/>
    </contour>
  </outline>
</glyph>
<glyph name="eight" format="2">
  <advance width="568"/>
  <unicode hex="0038"/>
  <outline>
    <contour>
      <point x="167" y="207" type="curve" smooth="yes"/>
      <point x="167" y="131"/>
      <point x="211" y="84.6667"/>
      <point x="283.333" y="84.6667" type="curve" smooth="yes"/>
      <point x="355.667" y="84.6667"/>
      <point x="400.667" y="132"/>
      <point x="400.667" y="207.333" type="curve" smooth="yes"/>
      <point x="400.667" y="284"/>
      <point x="355.333" y="332.333"/>
      <point x="283.667" y="332.333" type="curve" smooth="yes"/>
      <point x="212.333" y="332.333"/>
      <point x="167" y="283.667"/>
    </contour>
    <contour>
      <point x="283.667" y="432.667" type="curve" smooth="yes"/>
      <point x="345" y="432.667"/>
      <point x="385.333" y="473"/>
      <point x="385.333" y="535.667" type="curve" smooth="yes"/>
      <point x="385.333" y="597"/>
      <point x="345.667" y="636.333"/>
      <point x="283.667" y="636.333" type="curve" smooth="yes"/>
      <point x="221" y="636.333"/>
      <point x="181.333" y="596.667"/>
      <point x="181.333" y="535.667" type="curve" smooth="yes"/>
      <point x="181.333" y="474"/>
      <point x="222.333" y="432.667"/>
    </contour>
    <contour>
      <point x="531.333" y="191" type="curve" smooth="yes"/>
      <point x="531.333" y="64.6667"/>
      <point x="437" y="-13.6667"/>
      <point x="284" y="-13.6667" type="curve" smooth="yes"/>
      <point x="131.333" y="-13.6667"/>
      <point x="37.3333" y="64.6667"/>
      <point x="37.3333" y="193" type="curve" smooth="yes"/>
      <point x="37.3333" y="288"/>
      <point x="87" y="355.333"/>
      <point x="181.667" y="386.333" type="curve"/>
      <point x="99.6667" y="413"/>
      <point x="52.6667" y="473.667"/>
      <point x="52.6667" y="552.333" type="curve" smooth="yes"/>
      <point x="52.6667" y="663"/>
      <point x="145" y="736.667"/>
      <point x="285" y="736.667" type="curve" smooth="yes"/>
      <point x="424" y="736.667"/>
      <point x="515" y="663"/>
      <point x="515" y="552.667" type="curve" smooth="yes"/>
      <point x="515" y="473.333"/>
      <point x="467" y="415.333"/>
      <point x="379.667" y="386.667" type="curve"/>
      <point x="478.667" y="359"/>
      <point x="531.333" y="292"/>
    </contour>
  </outline>
</glyph>
<glyph name="equal" format="2">
  <advance width="900"/>
  <unicode hex="003D"/>
  <outline>
    <contour>
      <point x="150" y="299.333" type="line"/>
      <point x="150" y="401.333" type="line"/>
      <point x="750" y="401.333" type="line"/>
      <point x="750" y="299.333" type="line"/>
    </contour>
    <contour>
      <point x="150" y="198.667" type="line"/>
      <point x="150" y="300.667" type="line"/>
      <point x="750" y="300.667" type="line"/>
      <point x="750" y="198.667" type="line"/>
    </contour>
  </outline>
</glyph>
<glyph name="B" format="2">
  <advance width="663"/>
  <unicode hex="0042"/>
  <anchor x="278" y="797" name="top"/>
  <outline>
    <contour>
      <point x="200" y="105.667" type="line"/>
      <point x="322.667" y="105.667" type="line" smooth="yes"/>
      <point x="422.667" y="105.667"/>
      <point x="478" y="144"/>
      <point x="478" y="212.333" type="curve" smooth="yes"/>
      <point x="478" y="279.667"/>
      <point x="424.333" y="321"/>
      <point x="335" y="321" type="curve" smooth="yes"/>
      <point x="200" y="321" type="line"/>
    </contour>
    <contour>
      <point x="200" y="424.667" type="line"/>
      <point x="312" y="424.667" type="line" smooth="yes"/>
      <point x="398.333" y="424.667"/>
      <point x="448" y="459.667"/>
      <point x="448" y="519.333" type="curve" smooth="yes"/>
      <point x="448" y="577.667"/>
      <point x="400.333" y="615.667"/>
      <point x="324" y="615.667" type="curve" smooth="yes"/>
      <point x="200" y="615.667" type="line"/>
    </contour>
    <contour>
      <point x="66.6667" y="0" type="line"/>
      <point x="66.6667" y="721.333" type="line"/>
      <point x="361.333" y="721.333" type="line" smooth="yes"/>
      <point x="494.333" y="721.333"/>
      <point x="579" y="654.333"/>
      <point x="579" y="548.667" type="curve" smooth="yes"/>
      <point x="579" y="468"/>
      <point x="530" y="408.333"/>
      <point x="441.333" y="381.333" type="curve"/>
      <point x="441.333" y="377" type="line"/>
      <point x="548" y="355.333"/>
      <point x="610.333" y="288.667"/>
      <point x="610.333" y="195.333" type="curve" smooth="yes"/>
      <point x="610.333" y="80"/>
      <point x="516.333" y="0"/>
      <point x="376.667" y="0" type="curve" smooth="yes"/>
    </contour>
  </outline>
</glyph>
<glyph name="N" format="2">
  <advance width="739"/>
  <unicode hex="004E"/>
  <anchor x="371" y="797" name="top"/>
  <outline>
    <contour>
      <point x="66.6667" y="0" type="line"/>
      <point x="66.6667" y="722" type="line"/>
      <point x="254" y="722" type="line"/>
      <point x="546.333" y="140" type="line"/>
      <point x="546.333" y="722" type="line"/>
      <point x="673" y="722" type="line"/>
      <point x="673" y="0" type="line"/>
      <point x="485.333" y="0" type="line"/>
      <point x="193.333" y="582" type="line"/>
      <point x="193.333" y="0" type="line"/>
    </contour>
  </outline>
</glyph>
<glyph name="O" format="2">
  <advance width="780"/>
  <unicode hex="004F"/>
  <anchor x="383" y="797" name="top"/>
  <outline>
    <contour>
      <point x="54" y="361" type="curve" smooth="yes"/>
      <point x="54" y="579"/>
      <point x="165.333" y="735.333"/>
      <point x="391.333" y="735.333" type="curve"/>
      <point x="391.333" y="630" type="line"/>
      <point x="244.667" y="630"/>
      <point x="189" y="534.333"/>
      <point x="189" y="361" type="curve" smooth="yes"/>
      <point x="189" y="187.667"/>
      <point x="244.667" y="92"/>
      <point x="391.333" y="92" type="curve"/>
      <point x="391.333" y="-13.3333" type="line"/>
      <point x="165.333" y="-13.3333"/>
      <point x="54" y="143"/>
    </contour>
    <contour>
      <point x="728.667" y="361" type="curve" smooth="yes"/>
      <point x="728.667" y="143"/>
      <point x="617.333" y="-13.3333"/>
      <point x="391.333" y="-13.3333" type="curve"/>
      <point x="391.333" y="92" type="line"/>
      <point x="538" y="92"/>
      <point x="593.667" y="187.667"/>
      <point x="593.667" y="361" type="curve" smooth="yes"/>
      <point x="593.667" y="534.333"/>
      <point x="538" y="630"/>
      <point x="391.333" y="630" type="curve"/>
      <point x="391.333" y="735.333" type="line"/>
      <point x="617.333" y="735.333"/>
      <point x="728.667" y="579"/>
    </contour>
  </outline>
</glyph>
<glyph name="W" format="2">
  <advance width="991"/>
  <unicode hex="0057"/>
  <anchor x="494.333" y="797" name="top"/>
  <outline>
    <contour>
      <point x="979" y="722" type="line"/>
      <point x="787.667" y="0" type="line"/>
      <point x="644.333" y="0" type="line"/>
      <point x="495.333" y="561.333" type="line"/>
      <point x="346.333" y="0" type="line"/>
      <point x="203" y="0" type="line"/>
      <point x="11.6667" y="722" type="line"/>
      <point x="153.667" y="722" type="line"/>
      <point x="278" y="170" type="line"/>
      <point x="422.667" y="722" type="line"/>
      <point x="568" y="722" type="line"/>
      <point x="712.667" y="170" type="line"/>
      <point x="837" y="722" type="line"/>
    </contour>
  </outline>
</glyph>
<glyph name="bracketleft" format="2">
  <advance width="392"/>
  <unicode hex="005B"/>
  <outline>
    <contour>
      <point x="302.667" y="-198" type="line"/>
      <point x="90.6667" y="-198" type="line"/>
      <point x="90.6667" y="722" type="line"/>
      <point x="302.667" y="722" type="line"/>
      <point x="302.667" y="645" type="line"/>
      <point x="199.333" y="645" type="line"/>
      <point x="199.333" y="-121" type="line"/>
      <point x="302.667" y="-121" type="line"/>
    </contour>
  </outline>
</glyph>
<glyph name="grave" format="2">
  <advance width="244"/>
  <unicode hex="0060"/>
  <outline>
    <contour>
      <point x="189.333" y="600" type="line"/>
      <point x="122.333" y="600" type="line"/>
      <point x="-25" y="777" type="line"/>
      <point x="95.3333" y="777" type="line"/>
    </contour>
  </outline>
</glyph>
<glyph name="b" format="2">
  <advance width="609"/>
  <unicode hex="0062"/>
  <anchor x="308" y="782.667" name="top"/>
  <outline>
    <contour>
      <point x="66.6667" y="0" type="line"/>
      <point x="66.6667" y="722" type="line"/>
      <point x="185.667" y="722" type="line"/>
      <point x="185.667" y="447" type="line"/>
      <point x="229" y="495.667"/>
      <point x="269.667" y="513.667"/>
      <point x="338.667" y="513.667" type="curve" smooth="yes"/>
      <point x="474.333" y="513.667"/>
      <point x="559.333" y="415"/>
      <point x="559.333" y="258.333" type="curve" smooth="yes"/>
      <point x="559.333" y="97.6667"/>
      <point x="465.333" y="-13.6667"/>
      <point x="330.333" y="-13.6667" type="curve" smooth="yes"/>
      <point x="281.333" y="-13.6667"/>
      <point x="232" y="13.3333"/>
      <point x="185.667" y="65.6667" type="curve"/>
      <point x="185.667" y="0" type="line"/>
    </contour>
    <contour>
      <point x="183.667" y="251.333" type="curve" smooth="yes"/>
      <point x="183.667" y="141"/>
      <point x="235" y="68"/>
      <point x="311.333" y="68" type="curve" smooth="yes"/>
      <point x="388" y="68"/>
      <point x="437.333" y="141"/>
      <point x="437.333" y="250.333" type="curve" smooth="yes"/>
      <point x="437.333" y="362.333"/>
      <point x="384.667" y="437.667"/>
      <point x="309" y="437.667" type="curve" smooth="yes"/>
      <point x="233.333" y="437.667"/>
      <point x="183.667" y="362"/>
    </contour>
  </outline>
</glyph>
<glyph name="i" format="2">
  <advance width="272"/>
  <unicode hex="0069"/>
  <outline>
    <contour>
      <point x="76" y="0" type="line"/>
      <point x="76" y="500" type="line"/>
      <point x="196" y="500" type="line"/>
      <point x="196" y="0" type="line"/>
    </contour>
    <contour>
      <point x="66.6667" y="604.667" type="line"/>
      <point x="66.6667" y="722" type="line"/>
      <point x="205.333" y="722" type="line"/>
      <point x="205.333" y="604.667" type="line"/>
    </contour>
  </outline>
</glyph>
<glyph name="j" format="2">
  <advance width="283"/>
  <unicode hex="006A"/>
  <outline>
    <contour>
      <point x="33.3333" y="-208" type="line"/>
      <point x="33.3333" y="-113.333" type="line"/>
      <point x="49.6667" y="-113.333" type="line" smooth="yes"/>
      <point x="80.3333" y="-113.333"/>
      <point x="86.6667" y="-81"/>
      <point x="86.6667" y="-48" type="curve" smooth="yes"/>
      <point x="86.6667" y="500" type="line"/>
      <point x="206.667" y="500" type="line"/>
      <point x="206.667" y="-78" type="line" smooth="yes"/>
      <point x="206.667" y="-173.667"/>
      <point x="144.333" y="-208"/>
      <point x="57" y="-208" type="curve" smooth="yes"/>
    </contour>
    <contour>
      <point x="77.6667" y="604.667" type="line"/>
      <point x="77.6667" y="722" type="line"/>
      <point x="216.333" y="722" type="line"/>
      <point x="216.333" y="604.667" type="line"/>
    </contour>
  </outline>
</glyph>
<glyph name="r" format="2">
  <advance width="375"/>
  <unicode hex="0072"/>
  <outline>
    <contour>
      <point x="66.6667" y="0" type="line"/>
      <point x="66.6667" y="500" type="line"/>
      <point x="186.667" y="500" type="line"/>
      <point x="186.667" y="426" type="line"/>
      <point x="221.333" y="493.667"/>
      <point x="266.667" y="509.333"/>
      <point x="361.333" y="509.333" type="curve"/>
      <point x="361.333" y="406" type="line"/>
      <point x="253" y="406"/>
      <point x="186.667" y="360.333"/>
      <point x="186.667" y="264" type="curve" smooth="yes"/>
      <point x="186.667" y="0" type="line"/>
    </contour>
  </outline>
</glyph>
<glyph name="sterling" format="2">
  <advance width="568"/>
  <unicode hex="00A3"/>
  <outline>
    <contour>
      <point x="123.667" y="551.667" type="line" smooth="yes"/>
      <point x="123.667" y="679"/>
      <point x="212.667" y="736"/>
      <point x="336" y="736" type="curve" smooth="yes"/>
      <point x="456" y="736"/>
      <point x="548.333" y="693.667"/>
      <point x="548.333" y="568.333" type="curve"/>
      <point x="428.667" y="568.333" type="line"/>
      <point x="428.667" y="627"/>
      <point x="389.667" y="658"/>
      <point x="337.333" y="658" type="curve" smooth="yes"/>
      <point x="282.667" y="658"/>
      <point x="243.333" y="624"/>
      <point x="243.333" y="549" type="curve" smooth="yes"/>
      <point x="243.333" y="452.667" type="line"/>
      <point x="388.333" y="452.667" type="line"/>
      <point x="388.333" y="375.333" type="line"/>
      <point x="243.333" y="375.333" type="line"/>
      <point x="243.333" y="78" type="line"/>
      <point x="541" y="78" type="line"/>
      <point x="541" y="0" type="line"/>
      <point x="52" y="0" type="line"/>
      <point x="52" y="78" type="line"/>
      <point x="123.667" y="78" type="line"/>
      <point x="123.667" y="375.333" type="line"/>
      <point x="52" y="375.333" type="line"/>
      <point x="52" y="452.667" type="line"/>
      <point x="123.667" y="452.667" type="line"/>
    </contour>
  </outline>
</glyph>
<glyph name="copyright" format="2">
  <advance width="867"/>
  <unicode hex="00A9"/>
  <outline>
    <contour>
      <point x="229" y="354" type="curve" smooth="yes"/>
      <point x="229" y="488.296"/>
      <point x="295.691" y="588.667"/>
      <point x="430.333" y="588.667" type="curve" smooth="yes"/>
      <point x="549.542" y="588.667"/>
      <point x="620.333" y="525.376"/>
      <point x="620.333" y="424.333" type="curve"/>
      <point x="517.667" y="424.333" type="line"/>
      <point x="514.333" y="487.333"/>
      <point x="486" y="519"/>
      <point x="432.333" y="519" type="curve" smooth="yes"/>
      <point x="359.384" y="519"/>
      <point x="334.759" y="462.733"/>
      <point x="334.759" y="384.898" type="curve" smooth="yes"/>
      <point x="334.759" y="355.667" type="line" smooth="yes"/>
      <point x="334.759" y="277.033"/>
      <point x="352.158" y="198.333"/>
      <point x="429.667" y="198.333" type="curve" smooth="yes"/>
      <point x="493.333" y="198.333"/>
      <point x="514" y="242.333"/>
      <point x="516" y="300" type="curve"/>
      <point x="620.667" y="300" type="line"/>
      <point x="617.333" y="192.085"/>
      <point x="543.422" y="126.667"/>
      <point x="432.667" y="126.667" type="curve" smooth="yes"/>
      <point x="296.13" y="126.667"/>
      <point x="229" y="221.488"/>
    </contour>
    <contour>
      <point x="59" y="360" type="curve" smooth="yes"/>
      <point x="59" y="567.749"/>
      <point x="225.018" y="735"/>
      <point x="433" y="735" type="curve" smooth="yes"/>
      <point x="640.749" y="735"/>
      <point x="808" y="568.982"/>
      <point x="808" y="361" type="curve" smooth="yes"/>
      <point x="808" y="152.978"/>
      <point x="641.399" y="-16"/>
      <point x="433" y="-16" type="curve" smooth="yes"/>
      <point x="224.196" y="-16"/>
      <point x="59" y="151.619"/>
    </contour>
    <contour>
      <point x="119.667" y="357.667" type="curve" smooth="yes"/>
      <point x="119.667" y="182.833"/>
      <point x="259.166" y="44"/>
      <point x="432.667" y="44" type="curve" smooth="yes"/>
      <point x="606.938" y="44"/>
      <point x="744.333" y="181.529"/>
      <point x="744.333" y="356" type="curve" smooth="yes"/>
      <point x="744.333" y="528.52"/>
      <point x="605.439" y="671.333"/>
      <point x="432" y="671.333" type="curve" smooth="yes"/>
      <point x="258.801" y="671.333"/>
      <point x="119.667" y="530.344"/>
    </contour>
  </outline>
</glyph>
<glyph name="cedilla" format="2">
  <advance width="272"/>
  <unicode hex="00B8"/>
  <outline>
    <contour>
      <point x="279" y="-160.077" type="curve" smooth="yes"/>
      <point x="279" y="-224.25"/>
      <point x="235.489" y="-254.333"/>
      <point x="165.176" y="-254.333" type="curve" smooth="yes"/>
      <point x="140.176" y="-254.333"/>
      <point x="117.801" y="-251.935"/>
      <point x="83.5012" y="-245.333" type="curve"/>
      <point x="83.5012" y="-188.667" type="line"/>
      <point x="113.784" y="-198.742"/>
      <point x="142.325" y="-201.333"/>
      <point x="162.394" y="-201.333" type="curve" smooth="yes"/>
      <point x="182.967" y="-201.333"/>
      <point x="198.667" y="-185.221"/>
      <point x="198.667" y="-161.077" type="curve" smooth="yes"/>
      <point x="198.667" y="-125.102"/>
      <point x="158.559" y="-110.667"/>
      <point x="123.332" y="-110.667" type="curve" smooth="yes"/>
      <point x="88.3333" y="-110.667" type="line"/>
      <point x="151" y="16" type="line"/>
      <point x="214" y="16" type="line"/>
      <point x="170.737" y="-65.0559" type="line"/>
      <point x="246.019" y="-65.0559"/>
      <point x="279" y="-94.8008"/>
    </contour>
  </outline>
</glyph>
<glyph name="onequarter" format="2">
  <advance width="799"/>
  <unicode hex="00BC"/>
  <outline>
    <component base="onesuperior"/>
    <contour>
      <point x="639.211" y="736" type="line"/>
      <point x="213.667" y="-14" type="line"/>
      <point x="124.667" y="-14" type="line"/>
      <point x="550.667" y="736" type="line"/>
    </contour>
    <contour>
      <point x="756" y="79" type="line"/>
      <point x="699.667" y="79" type="line"/>
      <point x="699.667" y="-9.33333" type="line"/>
      <point x="614.333" y="-9.33333" type="line"/>
      <point x="614.333" y="79" type="line"/>
      <point x="435.667" y="79" type="line"/>
      <point x="435.667" y="142.66" type="line"/>
      <point x="599.667" y="378" type="line"/>
      <point x="699.667" y="378" type="line"/>
      <point x="699.667" y="137.667" type="line"/>
      <point x="756" y="137.667" type="line"/>
    </contour>
    <contour>
      <point x="614.333" y="137.667" type="line"/>
      <point x="614.333" y="292" type="line"/>
      <point x="512" y="137.667" type="line"/>
    </contour>
  </outline>
</glyph>
<glyph name="Oslash" format="2">
  <advance width="780"/>
  <unicode hex="00D8"/>
  <outline>
    <component base="O"/>
    <contour>
      <point x="153.109" y="-67.2624" type="line"/>
      <point x="83.6135" y="-19.4114" type="line"/>
      <point x="628.667" y="789" type="line"/>
      <point x="695.794" y="743.333" type="line"/>
    </contour>
  </outline>
</glyph>
<glyph name="Thorn" format="2">
  <advance width="644"/>
  <unicode hex="00DE"/>
  <outline>
    <contour>
      <point x="63.3333" y="0.333333" type="line"/>
      <point x="63.3333" y="722.333" type="line"/>
      <point x="197" y="722.333" type="line"/>
      <point x="197" y="596.667" type="line"/>
      <point x="298" y="596.667" type="line" smooth="yes"/>
      <point x="459.667" y="596.667"/>
      <point x="578.333" y="542.333"/>
      <point x="578.333" y="380.667" type="curve" smooth="yes"/>
      <point x="578.333" y="220.333"/>
      <point x="461.667" y="166"/>
      <point x="298" y="166" type="curve" smooth="yes"/>
      <point x="197" y="166" type="line"/>
      <point x="197" y="0.333333" type="line"/>
    </contour>
    <contour>
      <point x="197" y="272" type="line"/>
      <point x="299" y="272" type="line" smooth="yes"/>
      <point x="391.333" y="272"/>
      <point x="446" y="296"/>
      <point x="446" y="380.333" type="curve" smooth="yes"/>
      <point x="446" y="465.333"/>
      <point x="391.667" y="491"/>
      <point x="299" y="491" type="curve" smooth="yes"/>
      <point x="197" y="491" type="line"/>
    </contour>
  </outline>
</glyph>
<glyph name="germandbls" format="2">
  <advance width="568"/>
  <unicode hex="00DF"/>
  <outline>
    <contour>
      <point x="41.6667" y="-0.109467" type="line"/>
      <point x="41.6667" y="543.535" type="line" smooth="yes"/>
      <point x="41.6667" y="667.59"/>
      <point x="122.337" y="735.667"/>
      <point x="271.447" y="735.667" type="curve" smooth="yes"/>
      <point x="379.523" y="735.667"/>
      <point x="483.667" y="692.801"/>
      <point x="483.667" y="586.547" type="curve" smooth="yes"/>
      <point x="483.667" y="523.349"/>
      <point x="447.013" y="476.646"/>
      <point x="407.284" y="447.86" type="curve" smooth="yes"/>
      <point x="380.287" y="428.438"/>
      <point x="359.667" y="404.276"/>
      <point x="359.667" y="385.913" type="curve" smooth="yes"/>
      <point x="359.667" y="357.788"/>
      <point x="416.306" y="321.266"/>
      <point x="445.708" y="306.668" type="curve" smooth="yes"/>
      <point x="517.616" y="270.688"/>
      <point x="557.333" y="226.027"/>
      <point x="557.333" y="151.016" type="curve" smooth="yes"/>
      <point x="557.333" y="52.5998"/>
      <point x="486.909" y="-13.3333"/>
      <point x="368.151" y="-13.3333" type="curve" smooth="yes"/>
      <point x="267.544" y="-13.3333"/>
      <point x="206.264" y="34.4568"/>
      <point x="206" y="139.097" type="curve"/>
      <point x="313.333" y="139.097" type="line"/>
      <point x="313.333" y="88.6351"/>
      <point x="336.355" y="64.3333"/>
      <point x="382.404" y="64.3333" type="curve" smooth="yes"/>
      <point x="419" y="64.3333"/>
      <point x="437.333" y="91.378"/>
      <point x="437.333" y="138.526" type="curve" smooth="yes"/>
      <point x="437.333" y="190.088"/>
      <point x="395.365" y="217.641"/>
      <point x="357.417" y="237.15" type="curve" smooth="yes"/>
      <point x="291.173" y="271.21"/>
      <point x="233.333" y="306.629"/>
      <point x="233.333" y="372.83" type="curve" smooth="yes"/>
      <point x="233.333" y="413.727"/>
      <point x="269.019" y="453.341"/>
      <point x="299.847" y="476.071" type="curve" smooth="yes"/>
      <point x="327.173" y="497.076"/>
      <point x="362" y="530.757"/>
      <point x="362" y="579.022" type="curve" smooth="yes"/>
      <point x="362" y="625.982"/>
      <point x="329.454" y="653.667"/>
      <point x="267.959" y="653.667" type="curve" smooth="yes"/>
      <point x="195.026" y="653.667"/>
      <point x="161.667" y="614.819"/>
      <point x="161.667" y="536.177" type="curve" smooth="yes"/>
      <point x="161.667" y="-0.109458" type="line"/>
    </contour>
  </outline>
</glyph>
<glyph name="ae" format="2">
  <advance width="895"/>
  <unicode hex="00E6"/>
  <outline>
    <contour>
      <point x="118.333" y="236.667" type="curve"/>
      <point x="83.6667" y="304"/>
      <point x="129.667" y="355.667"/>
      <point x="203.667" y="388.667" type="curve"/>
      <point x="251" y="425.667"/>
      <point x="314.667" y="427"/>
      <point x="395" y="389.667" type="curve"/>
      <point x="433.065" y="428.599"/>
      <point x="483.255" y="443.667"/>
      <point x="544.333" y="443" type="curve"/>
      <point x="640.016" y="471.667"/>
      <point x="680.527" y="435.561"/>
      <point x="652.86" y="324.286" type="curve"/>
      <point x="628.527" y="320.566"/>
      <point x="615.527" y="304.549"/>
      <point x="615.527" y="285.333" type="curve"/>
      <point x="363.333" y="285.333" type="line"/>
      <point x="363.333" y="276.169"/>
      <point x="406.314" y="218"/>
      <point x="500.333" y="218" type="curve" smooth="yes"/>
      <point x="565.667" y="218"/>
      <point x="604.667" y="228"/>
      <point x="619.667" y="233.333" type="curve"/>
      <point x="646.304" y="260.667"/>
      <point x="720.844" y="273.667"/>
      <point x="774.333" y="273.667" type="curve"/>
      <point x="813" y="198.333"/>
      <point x="788.167" y="127.333"/>
      <point x="695.5" y="84" type="curve"/>
      <point x="644.237" y="81.4881"/>
      <point x="601.341" y="103.531"/>
      <point x="582.833" y="144" type="curve"/>
      <point x="534.449" y="106"/>
      <point x="402.738" y="70.6667"/>
      <point x="317.333" y="70.6667" type="curve"/>
      <point x="257.922" y="38"/>
      <point x="214.333" y="44.9963"/>
      <point x="242.667" y="110.333" type="curve"/>
      <point x="265.667" y="198.088"/>
      <point x="354.907" y="241"/>
      <point x="434.667" y="264.333" type="curve"/>
      <point x="450.629" y="264.333"/>
      <point x="509.448" y="263.667"/>
      <point x="533.667" y="261.667" type="curve"/>
      <point x="529.333" y="274.667"/>
      <point x="494.333" y="284.667"/>
      <point x="408" y="284.667" type="curve" smooth="yes"/>
      <point x="342.408" y="284.667"/>
      <point x="290" y="285.674"/>
      <point x="284" y="283.333" type="curve"/>
      <point x="274.545" y="271.667"/>
      <point x="192" y="236.667"/>
    </contour>
    <contour>
      <point x="254.667" y="180.333" type="curve"/>
      <point x="247" y="155"/>
      <point x="267.667" y="133.667"/>
      <point x="286.333" y="133.667" type="curve" smooth="yes"/>
      <point x="316.664" y="133.667"/>
      <point x="291.31" y="179.7"/>
      <point x="291.31" y="204.114" type="curve"/>
      <point x="291.31" y="184.003"/>
      <point x="308.31" y="177.245"/>
      <point x="327.31" y="178.333" type="curve" smooth="yes"/>
      <point x="341.977" y="179"/>
      <point x="341.333" y="201"/>
      <point x="331.333" y="236.333" type="curve"/>
      <point x="280" y="234.398"/>
      <point x="254.667" y="217.3"/>
    </contour>
    <contour>
      <point x="724.333" y="311" type="line"/>
      <point x="722" y="380.667"/>
      <point x="691.667" y="435"/>
      <point x="617.333" y="435" type="curve" smooth="yes"/>
      <point x="544.333" y="435"/>
      <point x="511.667" y="376.333"/>
      <point x="509" y="311" type="curve"/>
    </contour>
  </outline>
</glyph>
<glyph name="oslash" format="2">
  <advance width="591"/>
  <unicode hex="00F8"/>
  <outline>
    <component base="o" xOffset="-4.66667"/>
    <contour>
      <point x="82.6667" y="-82.3333" type="line"/>
      <point x="26.3333" y="-42" type="line"/>
      <point x="498.333" y="592.333" type="line"/>
      <point x="554.667" y="552" type="line"/>
    </contour>
  </outline>
</glyph>
<glyph name="thorn" format="2">
  <advance width="617"/>
  <unicode hex="00FE"/>
  <outline>
    <contour>
      <point x="71" y="-200" type="line"/>
      <point x="71" y="722" type="line"/>
      <point x="191" y="722" type="line"/>
      <point x="191" y="434" type="line"/>
      <point x="222.76" y="485.436"/>
      <point x="274.32" y="514"/>
      <point x="338.408" y="514" type="curve" smooth="yes"/>
      <point x="492.809" y="514"/>
      <point x="565" y="399.842"/>
      <point x="565" y="249.719" type="curve" smooth="yes"/>
      <point x="565" y="99.9397"/>
      <point x="493.472" y="-13.6667"/>
      <point x="341.361" y="-13.6667" type="curve" smooth="yes"/>
      <point x="275.097" y="-13.6667"/>
      <point x="224.85" y="14.1959"/>
      <point x="191" y="48.1349" type="curve"/>
      <point x="191" y="-200" type="line"/>
    </contour>
    <contour>
      <point x="191" y="250.393" type="curve" smooth="yes"/>
      <point x="191" y="164.631"/>
      <point x="217.303" y="64.3333"/>
      <point x="314" y="64.3333" type="curve" smooth="yes"/>
      <point x="411.141" y="64.3333"/>
      <point x="445.667" y="166.59"/>
      <point x="445.667" y="253.959" type="curve" smooth="yes"/>
      <point x="445.667" y="342.506"/>
      <point x="410.253" y="432.333"/>
      <point x="321.484" y="432.333" type="curve" smooth="yes"/>
      <point x="231.1" y="432.333"/>
      <point x="191" y="339.175"/>
    </contour>
  </outline>
</glyph>
<glyph name="Hbar" format="2">
  <advance width="700"/>
  <unicode hex="0126"/>
  <outline>
    <component base="H" xOffset="3.33333"/>
    <contour>
      <point x="15" y="509.333" type="line"/>
      <point x="684.667" y="509.333" type="line"/>
      <point x="684.667" y="597.667" type="line"/>
      <point x="15" y="597.667" type="line"/>
    </contour>
  </outline>
</glyph>
<glyph name="kgreenlandic" format="2">
  <advance width="533"/>
  <unicode hex="0138"/>
  <outline>
    <contour>
      <point x="516.333" y="0" type="line"/>
      <point x="367.333" y="0" type="line"/>
      <point x="186.667" y="263" type="line"/>
      <point x="186.667" y="0" type="line"/>
      <point x="66.6667" y="0" type="line"/>
      <point x="66.6667" y="459.333" type="line"/>
      <point x="186.667" y="500" type="line"/>
      <point x="186.667" y="298" type="line"/>
      <point x="354.667" y="500" type="line"/>
      <point x="500.333" y="500" type="line"/>
      <point x="313.667" y="283.333" type="line"/>
    </contour>
  </outline>
</glyph>
<glyph name="lcaron" format="2">
  <advance width="307"/>
  <unicode hex="013E"/>
  <outline>
    <contour>
      <point x="388" y="962.667" type="line"/>
      <point x="340.667" y="769.333" type="line"/>
      <point x="275.333" y="1010" type="line"/>
      <point x="288" y="1203.33" type="line"/>
    </contour>
    <contour>
      <point x="261.667" y="240.667" type="line"/>
      <point x="135" y="157.333" type="line"/>
      <point x="111.667" y="638.667" type="line"/>
      <point x="221.667" y="722" type="line"/>
    </contour>
  </outline>
</glyph>
<glyph name="ldot" format="2">
  <advance width="504"/>
  <unicode hex="0140"/>
  <outline>
    <contour>
      <point x="366" y="184" type="line"/>
      <point x="252" y="184" type="line"/>
      <point x="252" y="512.667" type="line"/>
      <point x="366" y="512.667" type="line"/>
    </contour>
    <contour>
      <point x="250.667" y="92.6667" type="line"/>
      <point x="124.667" y="92.6667" type="line"/>
      <point x="124.667" y="615" type="line"/>
      <point x="250.667" y="615" type="line"/>
    </contour>
  </outline>
</glyph>
<glyph name="Eng" format="2">
  <advance width="683"/>
  <unicode hex="014A"/>
  <outline>
    <component base="N"/>
    <contour>
      <point x="673" y="20" type="line"/>
      <point x="673" y="-68.6667" type="line" smooth="yes"/>
      <point x="673" y="-147.333"/>
      <point x="607.112" y="-200"/>
      <point x="517.997" y="-200" type="curve" smooth="yes"/>
      <point x="464.333" y="-200"/>
      <point x="405" y="-181"/>
      <point x="370" y="-143" type="curve"/>
      <point x="435.693" y="-71.6043" type="line"/>
      <point x="451.567" y="-91.4369"/>
      <point x="473" y="-103.333"/>
      <point x="498.67" y="-103.333" type="curve" smooth="yes"/>
      <point x="533.806" y="-103.333"/>
      <point x="557" y="-80.9744"/>
      <point x="557" y="-55.3333" type="curve" smooth="yes"/>
      <point x="557" y="20" type="line"/>
    </contour>
  </outline>
</glyph>
<glyph name="OE" format="2">
  <advance width="1017"/>
  <unicode hex="0152"/>
  <outline>
    <contour>
      <point x="57.3333" y="361.333" type="curve" smooth="yes"/>
      <point x="57.3333" y="576.187"/>
      <point x="175.273" y="736"/>
      <point x="394" y="736" type="curve" smooth="yes"/>
      <point x="433.333" y="736"/>
      <point x="472" y="731"/>
      <point x="506.333" y="722" type="curve"/>
      <point x="954.333" y="722" type="line"/>
      <point x="954.333" y="616.333" type="line"/>
      <point x="629" y="616.333" type="line"/>
      <point x="629" y="423.667" type="line"/>
      <point x="934.333" y="423.667" type="line"/>
      <point x="934.333" y="321.333" type="line"/>
      <point x="629" y="321.333" type="line"/>
      <point x="629" y="105.667" type="line"/>
      <point x="961" y="105.667" type="line"/>
      <point x="961" y="0" type="line"/>
      <point x="505" y="0" type="line"/>
      <point x="471.313" y="-9.85445"/>
      <point x="434.026" y="-13.3333"/>
      <point x="394" y="-13.3333" type="curve" smooth="yes"/>
      <point x="175.273" y="-13.3333"/>
      <point x="57.3333" y="146.48"/>
    </contour>
    <contour>
      <point x="193" y="361.667" type="curve" smooth="yes"/>
      <point x="193" y="192.333"/>
      <point x="259.331" y="92.6667"/>
      <point x="394" y="92.6667" type="curve" smooth="yes"/>
      <point x="435.522" y="92.6667"/>
      <point x="471.027" y="100.606"/>
      <point x="500" y="119" type="curve"/>
      <point x="500" y="607" type="line"/>
      <point x="470.177" y="623.198"/>
      <point x="435.01" y="631"/>
      <point x="394" y="631" type="curve" smooth="yes"/>
      <point x="236.676" y="631"/>
      <point x="193" y="492.532"/>
    </contour>
  </outline>
</glyph>
<glyph name="Tbar" format="2">
  <advance width="622"/>
  <unicode hex="0166"/>
  <outline>
    <component base="T"/>
    <contour>
      <point x="124" y="303.333" type="line"/>
      <point x="505.333" y="303.333" type="line"/>
      <point x="505.333" y="391.667" type="line"/>
      <point x="124" y="391.667" type="line"/>
    </contour>
  </outline>
</glyph>
<glyph name="uni022C" format="2">
  <advance width="780"/>
  <unicode hex="022C"/>
  <anchor x="383" y="797" name="top"/>
  <outline>
    <contour>
      <point x="54" y="364" type="curve" smooth="yes"/>
      <point x="54" y="581"/>
      <point x="167" y="734.667"/>
      <point x="391.333" y="734.667" type="curve" smooth="yes"/>
      <point x="615.333" y="734.667"/>
      <point x="727.333" y="580.333"/>
      <point x="727.333" y="364" type="curve" smooth="yes"/>
      <point x="727.333" y="148.333"/>
      <point x="616.333" y="-14"/>
      <point x="391.333" y="-14" type="curve" smooth="yes"/>
      <point x="166" y="-14"/>
      <point x="54" y="148"/>
    </contour>
    <contour>
      <point x="189" y="361" type="curve" smooth="yes"/>
      <point x="189" y="193.333"/>
      <point x="250" y="91.3333"/>
      <point x="389.333" y="91.3333" type="curve" smooth="yes"/>
      <point x="542.667" y="91.3333"/>
      <point x="592.333" y="213"/>
      <point x="592.333" y="363.333" type="curve" smooth="yes"/>
      <point x="592.333" y="505.333"/>
      <point x="548" y="629.667"/>
      <point x="391.333" y="629.667" type="curve" smooth="yes"/>
      <point x="240" y="629.667"/>
      <point x="189" y="511.333"/>
    </contour>
    <contour>
      <point x="226" y="815" type="line"/>
      <point x="232" y="873"/>
      <point x="266.667" y="919"/>
      <point x="316.209" y="919" type="curve" smooth="yes"/>
      <point x="340.552" y="919"/>
      <point x="366.376" y="908.966"/>
      <point x="389.679" y="897.567" type="curve" smooth="yes"/>
      <point x="409.475" y="887.744"/>
      <point x="428.321" y="880.333"/>
      <point x="443.488" y="880.333" type="curve" smooth="yes"/>
      <point x="462.333" y="880.333"/>
      <point x="478" y="893"/>
      <point x="483.333" y="918" type="curve"/>
      <point x="535.667" y="918" type="line"/>
      <point x="530" y="859.667"/>
      <point x="496.333" y="812"/>
      <point x="446.139" y="812" type="curve" smooth="yes"/>
      <point x="421.999" y="812"/>
      <point x="397.085" y="821.969"/>
      <point x="374.674" y="833.083" type="curve" smooth="yes"/>
      <point x="354.479" y="843.099"/>
      <point x="335.183" y="850.667"/>
      <point x="318.895" y="850.667" type="curve" smooth="yes"/>
      <point x="301" y="850.667"/>
      <point x="284.667" y="840"/>
      <point x="279" y="815" type="curve"/>
    </contour>
    <contour>
      <point x="557" y="979.667" type="line"/>
      <point x="207" y="979.667" type="line"/>
      <point x="207" y="1069.33" type="line"/>
      <point x="557" y="1069.33" type="line"/>
    </contour>
  </outline>
</glyph>
<glyph name="j.dotless" format="2">
  <advance width="312"/>
  <unicode hex="0237"/>
  <outline>
    <contour>
      <point x="76.6667" y="-208" type="line"/>
      <point x="76.6667" y="-113.333" type="line"/>
      <point x="93" y="-113.333" type="line" smooth="yes"/>
      <point x="123.667" y="-113.333"/>
      <point x="130" y="-81"/>
      <point x="130" y="-48" type="curve" smooth="yes"/>
      <point x="130" y="500" type="line"/>
      <point x="250" y="500" type="line"/>
      <point x="250" y="-78" type="line" smooth="yes"/>
      <point x="250" y="-173.667"/>
      <point x="187.667" y="-208"/>
      <point x="100.333" y="-208" type="curve" smooth="yes"/>
    </contour>
  </outline>
</glyph>
<glyph name="uni0255" format="2">
  <advance width="555"/>
  <unicode hex="0255"/>
  <outline>
    <contour>
      <point x="124.991" y="156.004" type="curve"/>
      <point x="166.917" y="266.667"/>
      <point x="248.333" y="359.748"/>
      <point x="350.333" y="386.204" type="curve"/>
      <point x="437.667" y="406.35"/>
      <point x="469.841" y="385.333"/>
      <point x="446.596" y="294" type="curve"/>
      <point x="391.217" y="294"/>
      <point x="288.351" y="242.429"/>
      <point x="251.663" y="171.667" type="curve"/>
      <point x="251.53" y="207.255"/>
      <point x="253.848" y="236.446"/>
      <point x="219.151" y="235.333" type="curve"/>
      <point x="180.814" y="295.072"/>
      <point x="213.139" y="272.333"/>
      <point x="240.628" y="223.667" type="curve"/>
      <point x="251.307" y="160.39"/>
      <point x="283.511" y="105.667"/>
      <point x="346.733" y="96.3496" type="curve"/>
      <point x="375.619" y="80.3619"/>
      <point x="382.976" y="82.0572"/>
      <point x="368.533" y="101.987" type="curve"/>
      <point x="324.963" y="112.667"/>
      <point x="307.947" y="148.342"/>
      <point x="291.663" y="183.785" type="curve"/>
      <point x="238.945" y="217.333"/>
      <point x="170.325" y="168.477"/>
      <point x="168.13" y="49" type="curve"/>
      <point x="183.824" y="51.2655"/>
      <point x="174.738" y="43.2717"/>
      <point x="170.291" y="25" type="curve"/>
      <point x="213.297" y="166.525"/>
      <point x="323.294" y="269.667"/>
      <point x="419.754" y="269.667" type="curve"/>
      <point x="459.681" y="307"/>
      <point x="469.644" y="304.699"/>
      <point x="433.172" y="261.529" type="curve"/>
      <point x="382.723" y="204.83"/>
      <point x="295.168" y="125"/>
      <point x="213.478" y="71.5642" type="curve"/>
      <point x="97.5278" y="22.0285"/>
      <point x="71.7249" y="48.0752"/>
    </contour>
  </outline>
</glyph>
<glyph name="uni0263" format="2">
  <advance width="530"/>
  <unicode hex="0263"/>
  <outline>
    <contour>
      <point x="262" y="-0.333333" type="curve"/>
      <point x="241.657" y="-30.7034"/>
      <point x="236.667" y="-56.6667"/>
      <point x="236.667" y="-74" type="curve" smooth="yes"/>
      <point x="236.667" y="-95"/>
      <point x="241.657" y="-112"/>
      <point x="264" y="-112" type="curve" smooth="yes"/>
      <point x="286.343" y="-112"/>
      <point x="291.333" y="-95"/>
      <point x="291.333" y="-73.0052" type="curve" smooth="yes"/>
      <point x="291.333" y="-55.3333"/>
      <point x="283.801" y="-28.0564"/>
    </contour>
    <contour>
      <point x="535" y="500" type="line"/>
      <point x="326.307" y="100.881" type="line"/>
      <point x="363.599" y="35.9925"/>
      <point x="392.333" y="-50"/>
      <point x="392.333" y="-85.2558" type="curve" smooth="yes"/>
      <point x="392.333" y="-154.333"/>
      <point x="351.333" y="-199"/>
      <point x="264.971" y="-199" type="curve" smooth="yes"/>
      <point x="178.367" y="-199"/>
      <point x="122.333" y="-154.333"/>
      <point x="122.333" y="-85.4541" type="curve" smooth="yes"/>
      <point x="122.333" y="-50"/>
      <point x="153.693" y="33.9357"/>
      <point x="194.441" y="92.6537" type="curve"/>
      <point x="9" y="500" type="line"/>
      <point x="139.333" y="500" type="line"/>
      <point x="283.943" y="160" type="line"/>
      <point x="240.61" y="160" type="line"/>
      <point x="396.667" y="500" type="line"/>
    </contour>
  </outline>
</glyph>
<glyph name="uni0266" format="2">
  <advance width="573"/>
  <unicode hex="0266"/>
  <outline>
    <contour>
      <point x="350.333" y="513.333" type="curve" smooth="yes"/>
      <point x="463.333" y="513.333"/>
      <point x="521.667" y="447.667"/>
      <point x="521.667" y="329.333" type="curve" smooth="yes"/>
      <point x="521.667" y="-0.666667" type="line"/>
      <point x="401.667" y="-0.666667" type="line"/>
      <point x="401.667" y="304" type="line" smooth="yes"/>
      <point x="401.667" y="387.667"/>
      <point x="369" y="436.333"/>
      <point x="306.667" y="436.333" type="curve" smooth="yes"/>
      <point x="242" y="436.333"/>
      <point x="186.667" y="366.667"/>
      <point x="186.667" y="292.333" type="curve" smooth="yes"/>
      <point x="186.667" y="-0.666667" type="line"/>
      <point x="66.6667" y="-0.666667" type="line"/>
      <point x="66.6667" y="462" type="line"/>
      <point x="186.667" y="462" type="line"/>
      <point x="186.667" y="440.333" type="line"/>
      <point x="221.566" y="490.161"/>
      <point x="276.615" y="513.333"/>
    </contour>
    <contour>
      <point x="66.6667" y="380" type="line"/>
      <point x="66.6667" y="545" type="line" smooth="yes"/>
      <point x="66.6667" y="653.789"/>
      <point x="148.319" y="732"/>
      <point x="261.667" y="732" type="curve" smooth="yes"/>
      <point x="351.759" y="732"/>
      <point x="398.366" y="712.319"/>
      <point x="437.667" y="676.333" type="curve"/>
      <point x="372.911" y="611.499" type="line"/>
      <point x="351.199" y="629.406"/>
      <point x="318.333" y="639.333"/>
      <point x="282.696" y="639.333" type="curve" smooth="yes"/>
      <point x="208.347" y="639.333"/>
      <point x="186.667" y="591.108"/>
      <point x="186.667" y="505.724" type="curve" smooth="yes"/>
      <point x="186.667" y="380" type="line"/>
    </contour>
  </outline>
</glyph>
<glyph name="uni0267" format="2">
  <advance width="574"/>
  <unicode hex="0267"/>
  <outline>
    <contour>
      <point x="350.333" y="513.333" type="curve" smooth="yes"/>
      <point x="463.333" y="513.333"/>
      <point x="521.667" y="447.667"/>
      <point x="521.667" y="329.333" type="curve" smooth="yes"/>
      <point x="521.667" y="-0.666667" type="line"/>
      <point x="401.667" y="-0.666667" type="line"/>
      <point x="401.667" y="304" type="line" smooth="yes"/>
      <point x="401.667" y="387.667"/>
      <point x="369" y="436.333"/>
      <point x="306.667" y="436.333" type="curve" smooth="yes"/>
      <point x="242" y="436.333"/>
      <point x="186.667" y="366.667"/>
      <point x="186.667" y="292.333" type="curve" smooth="yes"/>
      <point x="186.667" y="-0.666667" type="line"/>
      <point x="66.6667" y="-0.666667" type="line"/>
      <point x="66.6667" y="462" type="line"/>
      <point x="186.667" y="462" type="line"/>
      <point x="186.667" y="440.333" type="line"/>
      <point x="221.566" y="490.161"/>
      <point x="276.615" y="513.333"/>
    </contour>
    <contour>
      <point x="521.667" y="134" type="line"/>
      <point x="521.667" y="-60" type="line" smooth="yes"/>
      <point x="521.667" y="-141.528"/>
      <point x="447.058" y="-199"/>
      <point x="345.667" y="-199" type="curve" smooth="yes"/>
      <point x="288.667" y="-199"/>
      <point x="242.667" y="-180"/>
      <point x="207.667" y="-142" type="curve"/>
      <point x="277.132" y="-72.4343" type="line"/>
      <point x="291.579" y="-90.186"/>
      <point x="310.667" y="-102.333"/>
      <point x="339.667" y="-102.333" type="curve" smooth="yes"/>
      <point x="373.667" y="-102.333"/>
      <point x="401.667" y="-76.3333"/>
      <point x="401.667" y="-34.3333" type="curve" smooth="yes"/>
      <point x="401.667" y="134" type="line"/>
    </contour>
    <contour>
      <point x="66.6667" y="380" type="line"/>
      <point x="66.6667" y="545" type="line" smooth="yes"/>
      <point x="66.6667" y="653.789"/>
      <point x="148.319" y="732"/>
      <point x="261.667" y="732" type="curve" smooth="yes"/>
      <point x="351.759" y="732"/>
      <point x="398.366" y="712.319"/>
      <point x="437.667" y="676.333" type="curve"/>
      <point x="372.911" y="611.499" type="line"/>
      <point x="351.199" y="629.406"/>
      <point x="318.333" y="639.333"/>
      <point x="282.696" y="639.333" type="curve" smooth="yes"/>
      <point x="208.347" y="639.333"/>
      <point x="186.667" y="591.108"/>
      <point x="186.667" y="505.724" type="curve" smooth="yes"/>
      <point x="186.667" y="380" type="line"/>
    </contour>
  </outline>
</glyph>
<glyph name="uni026D" format="2">
  <advance width="282"/>
  <unicode hex="026D"/>
  <outline>
    <component base="l"/>
    <contour>
      <point x="307.667" y="-199.87" type="line"/>
      <point x="231.892" y="-199.87" type="line" smooth="yes"/>
      <point x="116.072" y="-199.87"/>
      <point x="66.6667" y="-147.855"/>
      <point x="66.6667" y="-33.0926" type="curve" smooth="yes"/>
      <point x="66.6667" y="40" type="line"/>
      <point x="186.667" y="40" type="line"/>
      <point x="186.667" y="-26" type="line" smooth="yes"/>
      <point x="186.667" y="-89.4839"/>
      <point x="204.976" y="-111.759"/>
      <point x="265.278" y="-111.759" type="curve" smooth="yes"/>
      <point x="307.667" y="-111.759" type="line"/>
    </contour>
  </outline>
</glyph>
<glyph name="uni027C" format="2">
  <advance width="363"/>
  <unicode hex="027C"/>
  <outline>
    <contour>
      <point x="186.667" y="-200" type="line"/>
      <point x="186.667" y="264" type="line" smooth="yes"/>
      <point x="186.667" y="360.333"/>
      <point x="253" y="406"/>
      <point x="361.333" y="406" type="curve"/>
      <point x="361.333" y="509.333" type="line"/>
      <point x="266.667" y="509.333"/>
      <point x="221.333" y="493.667"/>
      <point x="186.667" y="426" type="curve"/>
      <point x="186.667" y="500" type="line"/>
      <point x="66.6667" y="500" type="line"/>
      <point x="66.6667" y="-200" type="line"/>
    </contour>
  </outline>
</glyph>
<glyph name="uni0291" format="2">
  <advance width="595"/>
  <unicode hex="0291"/>
  <outline>
    <contour>
      <point x="49.3333" y="0" type="line"/>
      <point x="49.3333" y="97.3776" type="line"/>
      <point x="314.667" y="420.333" type="line"/>
      <point x="59.3333" y="420.333" type="line"/>
      <point x="59.3333" y="500" type="line"/>
      <point x="442" y="500" type="line"/>
      <point x="442" y="402.646" type="line"/>
      <point x="176" y="79.6667" type="line"/>
      <point x="227.333" y="79.6667" type="line"/>
      <point x="227.333" y="0" type="line"/>
    </contour>
    <contour>
      <point x="482" y="127.673" type="curve" smooth="yes"/>
      <point x="482" y="152.404"/>
      <point x="465" y="165.333"/>
      <point x="439.119" y="165.333" type="curve" smooth="yes"/>
      <point x="387" y="165.333"/>
      <point x="357.333" y="106.085"/>
      <point x="350.333" y="79.3958" type="curve"/>
      <point x="359.333" y="78.0208"/>
      <point x="382.667" y="77.3333"/>
      <point x="394.407" y="77.3333" type="curve" smooth="yes"/>
      <point x="449.917" y="77.3333"/>
      <point x="482" y="94.813"/>
    </contour>
    <contour>
      <point x="150" y="0" type="line"/>
      <point x="150" y="79.6667" type="line"/>
      <point x="274" y="79.6667" type="line"/>
      <point x="304.56" y="190.876"/>
      <point x="376" y="231.667"/>
      <point x="455.38" y="231.667" type="curve" smooth="yes"/>
      <point x="513.641" y="231.667"/>
      <point x="562" y="203.46"/>
      <point x="562" y="141.211" type="curve" smooth="yes"/>
      <point x="562" y="43.3163"/>
      <point x="465.667" y="-4.33333"/>
      <point x="375.231" y="-4.33333" type="curve" smooth="yes"/>
      <point x="363.333" y="-4.33333"/>
      <point x="334.333" y="-3.33333"/>
      <point x="327.333" y="-1.33333" type="curve"/>
      <point x="302.333" y="-130" type="line"/>
      <point x="238" y="-130" type="line"/>
      <point x="260" y="0" type="line"/>
    </contour>
  </outline>
</glyph>
<glyph name="uni029D" format="2">
  <advance width="414"/>
  <unicode hex="029D"/>
  <outline>
    <contour>
      <point x="197.667" y="0" type="line"/>
      <point x="197.667" y="500" type="line"/>
      <point x="317.667" y="500" type="line"/>
      <point x="317.667" y="0" type="line"/>
    </contour>
    <contour>
      <point x="390" y="77.6667" type="line"/>
      <point x="390" y="3.66667" type="line"/>
      <point x="317.667" y="3.66667" type="line"/>
      <point x="317.667" y="-64.5632" type="line" smooth="yes"/>
      <point x="317.667" y="-149.677"/>
      <point x="258.367" y="-200"/>
      <point x="156.688" y="-200" type="curve" smooth="yes"/>
      <point x="55.2635" y="-200"/>
      <point x="-5" y="-150.054"/>
      <point x="-5" y="-60.0286" type="curve" smooth="yes"/>
      <point x="-5" y="23.5568"/>
      <point x="46.916" y="77.6667"/>
      <point x="129" y="77.6667" type="curve" smooth="yes"/>
      <point x="197.667" y="77.6667" type="line"/>
      <point x="197.667" y="115.967" type="line"/>
      <point x="317.667" y="115.967" type="line"/>
      <point x="317.667" y="77.6667" type="line"/>
    </contour>
    <contour>
      <point x="197.667" y="-55.3413" type="curve" smooth="yes"/>
      <point x="197.667" y="3.66667" type="line"/>
      <point x="161.333" y="3.66667" type="line" smooth="yes"/>
      <point x="124.222" y="3.66667"/>
      <point x="105.333" y="-17.6875"/>
      <point x="105.333" y="-54.6648" type="curve" smooth="yes"/>
      <point x="105.333" y="-91.8997"/>
      <point x="124.656" y="-111"/>
      <point x="158.474" y="-111" type="curve" smooth="yes"/>
      <point x="187.801" y="-111"/>
      <point x="197.667" y="-97.1749"/>
    </contour>
    <contour>
      <point x="188.667" y="604.667" type="line"/>
      <point x="188.667" y="722" type="line"/>
      <point x="327.333" y="722" type="line"/>
      <point x="327.333" y="604.667" type="line"/>
    </contour>
  </outline>
</glyph>
<glyph name="uni029F" format="2">
  <advance width="431"/>
  <unicode hex="029F"/>
  <outline>
    <contour>
      <point x="402" y="0" type="line"/>
      <point x="57" y="0" type="line"/>
      <point x="57" y="500" type="line"/>
      <point x="177" y="500" type="line"/>
      <point x="177" y="85" type="line"/>
      <point x="402" y="85" type="line"/>
    </contour>
  </outline>
</glyph>
<glyph name="uni02B0" format="2">
  <advance width="530"/>
  <unicode hex="02B0"/>
  <outline>
    <contour>
      <point x="50.3313" y="350.297" type="line"/>
      <point x="50.3313" y="855.571" type="line"/>
      <point x="134.333" y="855.571" type="line"/>
      <point x="134.333" y="659.035" type="line"/>
      <point x="160.546" y="696.941"/>
      <point x="192.806" y="709.836"/>
      <point x="247.068" y="709.836" type="curve" smooth="yes"/>
      <point x="329.403" y="709.836"/>
      <point x="368.47" y="663.902"/>
      <point x="368.47" y="581.3" type="curve" smooth="yes"/>
      <point x="368.47" y="350.297" type="line"/>
      <point x="284.469" y="350.297" type="line"/>
      <point x="284.469" y="563.633" type="line" smooth="yes"/>
      <point x="284.469" y="623.834"/>
      <point x="260.135" y="657.035"/>
      <point x="218.468" y="657.035" type="curve" smooth="yes"/>
      <point x="170.534" y="657.035"/>
      <point x="134.333" y="622.324"/>
      <point x="134.333" y="557.501" type="curve" smooth="yes"/>
      <point x="134.333" y="350.297" type="line"/>
    </contour>
  </outline>
</glyph>
<glyph name="uni02B7" format="2">
  <advance width="760"/>
  <unicode hex="02B7"/>
  <outline>
    <contour>
      <point x="750.333" y="566.667" type="line"/>
      <point x="609" y="116.667" type="line"/>
      <point x="481.333" y="116.667" type="line"/>
      <point x="380.333" y="446.667" type="line"/>
      <point x="279.333" y="116.667" type="line"/>
      <point x="151.667" y="116.667" type="line"/>
      <point x="10" y="566.667" type="line"/>
      <point x="125.333" y="566.667" type="line"/>
      <point x="216.667" y="255.667" type="line"/>
      <point x="314.333" y="566.667" type="line"/>
      <point x="446.333" y="566.667" type="line"/>
      <point x="543.667" y="255.667" type="line"/>
      <point x="635.333" y="566.667" type="line"/>
    </contour>
  </outline>
</glyph>
<glyph name="uni02D1" format="2">
  <advance width="372"/>
  <unicode hex="02D1"/>
  <outline>
    <contour>
      <point x="274.087" y="500" type="line"/>
      <point x="216.593" y="299.36" type="line"/>
      <point x="155.58" y="299.36" type="line"/>
      <point x="96.9133" y="500" type="line"/>
    </contour>
  </outline>
</glyph>
<glyph name="tilde" format="2">
  <advance width="311"/>
  <unicode hex="02DC"/>
  <anchor x="155.333" y="600" name="_top"/>
  <outline>
    <contour>
      <point x="0" y="618" type="line"/>
      <point x="6" y="676"/>
      <point x="40.6667" y="722"/>
      <point x="93.1085" y="722" type="curve" smooth="yes"/>
      <point x="112.074" y="722"/>
      <point x="134.814" y="716.005"/>
      <point x="155.586" y="704.433" type="curve"/>
      <point x="155.328" y="632.871" type="line"/>
      <point x="136.512" y="645.42"/>
      <point x="113.754" y="653.667"/>
      <point x="95.3311" y="653.667" type="curve" smooth="yes"/>
      <point x="75" y="653.667"/>
      <point x="58.6667" y="643"/>
      <point x="53" y="618" type="curve"/>
    </contour>
    <contour>
      <point x="310.806" y="719.355" type="line"/>
      <point x="304.806" y="661.355"/>
      <point x="270.14" y="615.355"/>
      <point x="217.698" y="615.355" type="curve" smooth="yes"/>
      <point x="198.733" y="615.355"/>
      <point x="175.992" y="621.351"/>
      <point x="155.22" y="632.922" type="curve"/>
      <point x="155.478" y="704.484" type="line"/>
      <point x="174.294" y="691.935"/>
      <point x="197.052" y="683.688"/>
      <point x="215.475" y="683.688" type="curve" smooth="yes"/>
      <point x="235.806" y="683.688"/>
      <point x="252.14" y="694.355"/>
      <point x="257.806" y="719.355" type="curve"/>
    </contour>
  </outline>
  <guideline angle="90" x="160" y="0"/>
</glyph>
<glyph name="hungarumlaut" format="2">
  <advance width="421"/>
  <unicode hex="02DD"/>
  <outline>
    <contour>
      <point x="223.333" y="783.667" type="line"/>
      <point x="91.3333" y="599.333" type="line"/>
      <point x="9.33333" y="599.333" type="line"/>
      <point x="93.3333" y="783.667" type="line"/>
    </contour>
    <contour>
      <point x="410" y="784.333" type="line"/>
      <point x="278" y="599.333" type="line"/>
      <point x="196" y="599.333" type="line"/>
      <point x="280" y="784.333" type="line"/>
    </contour>
  </outline>
</glyph>
<glyph name="uni02E6" format="2">
  <advance width="391"/>
  <unicode hex="02E6"/>
  <outline>
    <contour>
      <point x="334.333" y="0" type="line"/>
      <point x="223" y="0" type="line"/>
      <point x="223" y="483" type="line"/>
      <point x="20" y="483" type="line"/>
      <point x="20" y="567.667" type="line"/>
      <point x="223" y="567.667" type="line"/>
      <point x="223" y="722" type="line"/>
      <point x="334.333" y="722" type="line"/>
    </contour>
  </outline>
</glyph>
<glyph name="uni02E8" format="2">
  <advance width="391"/>
  <unicode hex="02E8"/>
  <outline>
    <contour>
      <point x="334.333" y="0" type="line"/>
      <point x="223" y="0" type="line"/>
      <point x="223" y="161" type="line"/>
      <point x="20" y="161" type="line"/>
      <point x="20" y="245.667" type="line"/>
      <point x="223" y="245.667" type="line"/>
      <point x="223" y="722" type="line"/>
      <point x="334.333" y="722" type="line"/>
    </contour>
  </outline>
</glyph>
<glyph name="uni02E9" format="2">
  <advance width="391"/>
  <unicode hex="02E9"/>
  <outline>
    <contour>
      <point x="334.333" y="0" type="line"/>
      <point x="21" y="0" type="line"/>
      <point x="21" y="84.6667" type="line"/>
      <point x="223" y="84.6667" type="line"/>
      <point x="223" y="722" type="line"/>
      <point x="334.333" y="722" type="line"/>
    </contour>
  </outline>
</glyph>
<glyph name="uni0302" format="2">
  <advance width="1"/>
  <unicode hex="0302"/>
  <anchor x="-309.333" y="600" name="_top"/>
  <anchor x="-308" y="810" name="top.mkmk"/>
  <outline>
    <contour>
      <point x="-153" y="600" type="line"/>
      <point x="-219.667" y="600" type="line"/>
      <point x="-308" y="710" type="line"/>
      <point x="-396.333" y="600" type="line"/>
      <point x="-463" y="600" type="line"/>
      <point x="-373" y="776.667" type="line"/>
      <point x="-243" y="776.667" type="line"/>
    </contour>
  </outline>
</glyph>
<glyph name="hookabovecomb" format="2">
  <advance width="333"/>
  <unicode hex="0309"/>
  <outline>
    <contour>
      <point x="-136" y="699.667" type="curve" smooth="yes"/>
      <point x="-136" y="650.333"/>
      <point x="-168" y="618"/>
      <point x="-232" y="600" type="curve"/>
      <point x="-232" y="536" type="line"/>
      <point x="-312" y="536" type="line"/>
      <point x="-312" y="622" type="line"/>
      <point x="-248" y="627"/>
      <point x="-216" y="654"/>
      <point x="-216" y="696.667" type="curve" smooth="yes"/>
      <point x="-216" y="731"/>
      <point x="-238" y="751"/>
      <point x="-271.667" y="751" type="curve" smooth="yes"/>
      <point x="-294" y="751"/>
      <point x="-315" y="740"/>
      <point x="-318" y="714" type="curve"/>
      <point x="-398" y="714" type="line"/>
      <point x="-388.667" y="776.667"/>
      <point x="-340.333" y="811"/>
      <point x="-272.667" y="811" type="curve" smooth="yes"/>
      <point x="-192" y="811"/>
      <point x="-136" y="765"/>
    </contour>
  </outline>
</glyph>
<glyph name="uni030A" format="2">
  <unicode hex="030A"/>
  <anchor x="-296.667" y="600" name="_top"/>
  <outline>
    <contour>
      <point x="-297" y="827.333" type="curve" smooth="yes"/>
      <point x="-233" y="827.333"/>
      <point x="-179.667" y="774"/>
      <point x="-179.667" y="710" type="curve" smooth="yes"/>
      <point x="-179.667" y="646"/>
      <point x="-233" y="592.667"/>
      <point x="-297" y="592.667" type="curve" smooth="yes"/>
      <point x="-361" y="592.667"/>
      <point x="-414.333" y="646"/>
      <point x="-414.333" y="710" type="curve" smooth="yes"/>
      <point x="-414.333" y="774"/>
      <point x="-361" y="827.333"/>
    </contour>
    <contour>
      <point x="-344.227" y="710" type="curve" smooth="yes"/>
      <point x="-344.227" y="683.019"/>
      <point x="-323.981" y="662.773"/>
      <point x="-297" y="662.773" type="curve" smooth="yes"/>
      <point x="-269.879" y="662.773"/>
      <point x="-249.773" y="682.879"/>
      <point x="-249.773" y="710" type="curve" smooth="yes"/>
      <point x="-249.773" y="737.021"/>
      <point x="-269.979" y="757.227"/>
      <point x="-297" y="757.227" type="curve" smooth="yes"/>
      <point x="-323.77" y="757.227"/>
      <point x="-344.227" y="736.77"/>
    </contour>
  </outline>
</glyph>
<glyph name="uni030F" format="2">
  <advance width="1"/>
  <unicode hex="030F"/>
  <anchor x="-266" y="600" name="_top"/>
  <outline>
    <contour>
      <point x="-293.667" y="600" type="line"/>
      <point x="-375.667" y="600" type="line"/>
      <point x="-507" y="784.333" type="line"/>
      <point x="-377" y="784.333" type="line"/>
    </contour>
    <contour>
      <point x="-113.667" y="600" type="line"/>
      <point x="-195.667" y="600" type="line"/>
      <point x="-327" y="784.333" type="line"/>
      <point x="-197" y="784.333" type="line"/>
    </contour>
  </outline>
</glyph>
<glyph name="uni0318" format="2">
  <advance width="1"/>
  <unicode hex="0318"/>
  <outline>
    <contour>
      <point x="-235" y="-305" type="line"/>
      <point x="-317" y="-305" type="line"/>
      <point x="-317" y="-207" type="line"/>
      <point x="-420" y="-207" type="line"/>
      <point x="-420" y="-125" type="line"/>
      <point x="-317" y="-125" type="line"/>
      <point x="-317" y="-27" type="line"/>
      <point x="-235" y="-27" type="line"/>
    </contour>
  </outline>
</glyph>
<glyph name="Omega" format="2">
  <advance width="800"/>
  <unicode hex="03A9"/>
  <outline>
    <contour>
      <point x="42.6667" y="0" type="line"/>
      <point x="42.6667" y="101.667" type="line"/>
      <point x="275.214" y="101.667" type="line"/>
      <point x="272.221" y="135" type="line"/>
      <point x="127" y="180"/>
      <point x="55.3333" y="268.333"/>
      <point x="55.3333" y="413.333" type="curve" smooth="yes"/>
      <point x="55.3333" y="594.594"/>
      <point x="212.59" y="728.667"/>
      <point x="401.998" y="728.667" type="curve" smooth="yes"/>
      <point x="598.421" y="728.667"/>
      <point x="744.333" y="603.887"/>
      <point x="744.333" y="413.333" type="curve" smooth="yes"/>
      <point x="744.333" y="272.333"/>
      <point x="671.628" y="180"/>
      <point x="529.113" y="135" type="curve"/>
      <point x="524.456" y="101.667" type="line"/>
      <point x="753.667" y="101.667" type="line"/>
      <point x="753.667" y="0" type="line"/>
      <point x="431.914" y="0" type="line"/>
      <point x="443.221" y="179" type="line"/>
      <point x="557.043" y="227.701"/>
      <point x="631.333" y="283.806"/>
      <point x="631.333" y="413.333" type="curve" smooth="yes"/>
      <point x="631.333" y="528.769"/>
      <point x="557.666" y="624.667"/>
      <point x="402.333" y="624.667" type="curve" smooth="yes"/>
      <point x="242.635" y="624.667"/>
      <point x="172.333" y="529.029"/>
      <point x="172.333" y="413.333" type="curve" smooth="yes"/>
      <point x="172.333" y="282.194"/>
      <point x="249.626" y="225.604"/>
      <point x="360.111" y="178.333" type="curve"/>
      <point x="370.419" y="0" type="line"/>
    </contour>
  </outline>
</glyph>
<glyph name="epsilon" format="2">
  <advance width="551"/>
  <unicode hex="03B5"/>
  <anchor x="266.667" y="600" name="tonos.top"/>
  <outline>
    <contour>
      <point x="54" y="127.438" type="curve" smooth="yes"/>
      <point x="54" y="195.997"/>
      <point x="87.5338" y="240.877"/>
      <point x="154.22" y="264" type="curve"/>
      <point x="107.543" y="279.325"/>
      <point x="76" y="318.617"/>
      <point x="76" y="376.78" type="curve" smooth="yes"/>
      <point x="76" y="457.535"/>
      <point x="144.826" y="513.333"/>
      <point x="262.104" y="513.333" type="curve" smooth="yes"/>
      <point x="393.521" y="513.333"/>
      <point x="473" y="449.892"/>
      <point x="473" y="354" type="curve"/>
      <point x="370" y="354" type="line"/>
      <point x="370" y="403.462"/>
      <point x="333.2" y="433.667"/>
      <point x="273.744" y="433.667" type="curve" smooth="yes"/>
      <point x="228.215" y="433.667"/>
      <point x="195.333" y="407.136"/>
      <point x="195.333" y="372" type="curve" smooth="yes"/>
      <point x="195.333" y="332.089"/>
      <point x="218.483" y="305.525"/>
      <point x="256.333" y="302" type="curve" smooth="yes"/>
      <point x="328" y="296" type="line"/>
      <point x="328" y="227" type="line"/>
      <point x="261.333" y="221" type="line" smooth="yes"/>
      <point x="212.735" y="216.116"/>
      <point x="180.333" y="184.73"/>
      <point x="180.333" y="142.191" type="curve" smooth="yes"/>
      <point x="180.333" y="96.7474"/>
      <point x="216.33" y="66.3333"/>
      <point x="271.653" y="66.3333" type="curve" smooth="yes"/>
      <point x="344.608" y="66.3333"/>
      <point x="390" y="99.1713"/>
      <point x="390" y="154" type="curve"/>
      <point x="496" y="154" type="line"/>
      <point x="496" y="52.618"/>
      <point x="407.248" y="-13.3333"/>
      <point x="264.812" y="-13.3333" type="curve" smooth="yes"/>
      <point x="134.446" y="-13.3333"/>
      <point x="54" y="42.1317"/>
    </contour>
  </outline>
</glyph>
<glyph name="iota" format="2">
  <advance width="314"/>
  <unicode hex="03B9"/>
  <anchor x="136.667" y="600" name="tonos.top"/>
  <outline>
    <contour>
      <point x="85" y="59" type="curve"/>
      <point x="85" y="501" type="line"/>
      <point x="205" y="501" type="line"/>
      <point x="205" y="117.333" type="line" smooth="yes"/>
      <point x="205" y="89.3333"/>
      <point x="234.25" y="80.3333"/>
      <point x="252.775" y="80.3333" type="curve" smooth="yes"/>
      <point x="262.525" y="80.3333"/>
      <point x="275.2" y="83.3333"/>
      <point x="283" y="85.3333" type="curve"/>
      <point x="283" y="-3" type="line"/>
      <point x="157.614" y="-3" type="line" smooth="yes"/>
      <point x="119.773" y="-3"/>
      <point x="97.2727" y="24"/>
    </contour>
  </outline>
</glyph>
<glyph name="upsilon" format="2">
  <advance width="608"/>
  <unicode hex="03C5"/>
  <anchor x="290" y="600" name="tonos.top"/>
  <outline>
    <contour>
      <point x="72.6667" y="158" type="curve" smooth="yes"/>
      <point x="72.6667" y="500" type="line"/>
      <point x="192.667" y="500" type="line"/>
      <point x="192.667" y="178.333" type="line" smooth="yes"/>
      <point x="192.667" y="78.3333"/>
      <point x="250.661" y="67.3333"/>
      <point x="300.46" y="67.3333" type="curve" smooth="yes"/>
      <point x="371.173" y="67.3333"/>
      <point x="407.333" y="77.9487"/>
      <point x="407.333" y="178.333" type="curve" smooth="yes"/>
      <point x="407.333" y="500" type="line"/>
      <point x="527.333" y="500" type="line"/>
      <point x="527.333" y="158" type="line" smooth="yes"/>
      <point x="527.333" y="38"/>
      <point x="395.682" y="-12"/>
      <point x="322.274" y="-12" type="curve" smooth="yes"/>
      <point x="277.75" y="-12" type="line" smooth="yes"/>
      <point x="184.434" y="-12"/>
      <point x="72.6667" y="37.9149"/>
    </contour>
  </outline>
</glyph>
<glyph name="theta1" format="2">
  <advance width="593"/>
  <unicode hex="03D1"/>
  <outline>
    <contour>
      <point x="259" y="599" type="curve" smooth="yes"/>
      <point x="253.667" y="599" type="line" smooth="yes"/>
      <point x="218.639" y="599"/>
      <point x="191.333" y="568.606"/>
      <point x="191.333" y="529.985" type="curve" smooth="yes"/>
      <point x="191.333" y="462.457"/>
      <point x="274.868" y="408.609"/>
      <point x="353" y="393.938" type="curve" smooth="yes"/>
      <point x="401" y="384.591" type="line"/>
      <point x="400" y="402.622" type="line" smooth="yes"/>
      <point x="393.614" y="517.779"/>
      <point x="338.382" y="599"/>
    </contour>
    <contour>
      <point x="253.891" y="694.996" type="curve" smooth="yes"/>
      <point x="437.486" y="694.686"/>
      <point x="525.417" y="551.775"/>
      <point x="525.667" y="256.365" type="curve" smooth="yes"/>
      <point x="525.814" y="81.8847"/>
      <point x="437.807" y="-13.3333"/>
      <point x="283.511" y="-13.3333" type="curve" smooth="yes"/>
      <point x="156.914" y="-13.3333"/>
      <point x="66.6667" y="51.2609"/>
      <point x="66.6667" y="152.178" type="curve" smooth="yes"/>
      <point x="66.6667" y="304.831" type="line"/>
      <point x="186.667" y="304.831" type="line"/>
      <point x="186.667" y="156.185" type="line" smooth="yes"/>
      <point x="186.667" y="104.623"/>
      <point x="227.063" y="67"/>
      <point x="284.037" y="67" type="curve" smooth="yes"/>
      <point x="373.184" y="67"/>
      <point x="405.667" y="120.276"/>
      <point x="405.667" y="216.295" type="curve" smooth="yes"/>
      <point x="405.667" y="319.476" type="line"/>
      <point x="201.422" y="338.293"/>
      <point x="76.6667" y="441.387"/>
      <point x="76.6667" y="557.909" type="curve" smooth="yes"/>
      <point x="76.6667" y="644.995"/>
      <point x="144.912" y="695.18"/>
    </contour>
  </outline>
</glyph>
<glyph name="Tshecyr" format="2">
  <advance width="823"/>
  <unicode hex="040B"/>
  <outline>
    <contour>
      <point x="774.715" y="0" type="line"/>
      <point x="639.62" y="-0.118667" type="line"/>
      <point x="639.667" y="218.899" type="line" smooth="yes"/>
      <point x="639.688" y="313.076"/>
      <point x="584.738" y="363.254"/>
      <point x="459.561" y="363.254" type="curve" smooth="yes"/>
      <point x="417.654" y="363.254"/>
      <point x="376.567" y="352.954"/>
      <point x="320.667" y="333.254" type="curve"/>
      <point x="320.667" y="426.952" type="line"/>
      <point x="376.567" y="446.652"/>
      <point x="438.985" y="456.952"/>
      <point x="498.667" y="456.952" type="curve" smooth="yes"/>
      <point x="701.092" y="456.952"/>
      <point x="774.637" y="363.646"/>
      <point x="774.667" y="231.514" type="curve" smooth="yes"/>
    </contour>
    <contour>
      <point x="601.333" y="616.333" type="line"/>
      <point x="380.667" y="616.333" type="line"/>
      <point x="380.667" y="0" type="line"/>
      <point x="247.333" y="0" type="line"/>
      <point x="247.333" y="616.333" type="line"/>
      <point x="26.6667" y="616.333" type="line"/>
      <point x="26.6667" y="722" type="line"/>
      <point x="601.333" y="722" type="line"/>
    </contour>
  </outline>
</glyph>
<glyph name="uni0413" format="2">
  <advance width="552"/>
  <unicode hex="0413"/>
  <outline>
    <contour>
      <point x="509.333" y="616.333" type="line"/>
      <point x="193.667" y="616.333" type="line"/>
      <point x="193.667" y="0" type="line"/>
      <point x="63.3333" y="0" type="line"/>
      <point x="63.3333" y="722" type="line"/>
      <point x="509.333" y="722" type="line"/>
    </contour>
  </outline>
</glyph>
<glyph name="uni0416" format="2">
  <advance width="970"/>
  <unicode hex="0416"/>
  <outline>
    <contour>
      <point x="419.667" y="340.333" type="line"/>
      <point x="174.333" y="0" type="line"/>
      <point x="13.3333" y="0" type="line"/>
      <point x="305.333" y="409" type="line"/>
      <point x="47" y="722" type="line"/>
      <point x="199.667" y="722" type="line"/>
      <point x="419.667" y="449.667" type="line"/>
      <point x="419.667" y="722" type="line"/>
      <point x="550" y="722" type="line"/>
      <point x="550" y="449.667" type="line"/>
      <point x="770" y="722" type="line"/>
      <point x="922.667" y="722" type="line"/>
      <point x="663.667" y="408.333" type="line"/>
      <point x="956.333" y="0" type="line"/>
      <point x="795.333" y="0" type="line"/>
      <point x="550" y="340.333" type="line"/>
      <point x="550" y="0" type="line"/>
      <point x="419.667" y="0" type="line"/>
    </contour>
  </outline>
</glyph>
<glyph name="uni0417" format="2">
  <advance width="567"/>
  <unicode hex="0417"/>
  <outline>
    <contour>
      <point x="38.6667" y="208.667" type="curve"/>
      <point x="170.667" y="208.667" type="line"/>
      <point x="178.667" y="126.333"/>
      <point x="209.333" y="86.3333"/>
      <point x="276.333" y="86.3333" type="curve" smooth="yes"/>
      <point x="358.667" y="86.3333"/>
      <point x="393" y="140.333"/>
      <point x="393" y="201" type="curve" smooth="yes"/>
      <point x="393" y="277.333"/>
      <point x="341" y="324"/>
      <point x="246" y="324" type="curve" smooth="yes"/>
      <point x="197.667" y="324" type="line"/>
      <point x="197.667" y="426.667" type="line"/>
      <point x="238.667" y="426.667" type="line" smooth="yes"/>
      <point x="321.333" y="426.667"/>
      <point x="381" y="461.333"/>
      <point x="381" y="546.333" type="curve" smooth="yes"/>
      <point x="381" y="606.667"/>
      <point x="339.333" y="635.667"/>
      <point x="292.667" y="635.667" type="curve" smooth="yes"/>
      <point x="234.333" y="635.667"/>
      <point x="196.667" y="595.667"/>
      <point x="181.333" y="515.333" type="curve"/>
      <point x="51" y="515.333" type="line"/>
      <point x="73.6667" y="665"/>
      <point x="173" y="736"/>
      <point x="290.333" y="736" type="curve" smooth="yes"/>
      <point x="406.333" y="736"/>
      <point x="514.333" y="658.667"/>
      <point x="514.333" y="539.333" type="curve" smooth="yes"/>
      <point x="514.333" y="464"/>
      <point x="451.333" y="403.333"/>
      <point x="395" y="377" type="curve"/>
      <point x="395" y="381" type="line"/>
      <point x="455.333" y="358.333"/>
      <point x="526.333" y="302"/>
      <point x="526.333" y="208.333" type="curve" smooth="yes"/>
      <point x="526.333" y="74.6667"/>
      <point x="404.333" y="-13.3333"/>
      <point x="273.333" y="-13.3333" type="curve" smooth="yes"/>
      <point x="136" y="-13.3333"/>
      <point x="38.6667" y="72.3333"/>
    </contour>
  </outline>
</glyph>
<glyph name="uni0419" format="2">
  <advance width="700"/>
  <unicode hex="0419"/>
  <outline>
    <contour>
      <point x="63.3333" y="0" type="line"/>
      <point x="63.3333" y="722" type="line"/>
      <point x="190.333" y="722" type="line"/>
      <point x="190.333" y="188.667" type="line"/>
      <point x="473.333" y="722" type="line"/>
      <point x="636.333" y="722" type="line"/>
      <point x="636.333" y="0" type="line"/>
      <point x="509.333" y="0" type="line"/>
      <point x="509.333" y="534" type="line"/>
      <point x="222.667" y="0" type="line"/>
    </contour>
    <contour>
      <point x="332.667" y="819.667" type="curve" smooth="yes"/>
      <point x="364" y="819.667"/>
      <point x="401.333" y="841.333"/>
      <point x="408.333" y="871.667" type="curve"/>
      <point x="483" y="871.667" type="line"/>
      <point x="472.667" y="796.667"/>
      <point x="410.667" y="733.333"/>
      <point x="332.667" y="733.333" type="curve" smooth="yes"/>
      <point x="255" y="733.333"/>
      <point x="192.667" y="795.667"/>
      <point x="182.667" y="871.667" type="curve"/>
      <point x="257.333" y="871.667" type="line"/>
      <point x="263.667" y="842.333"/>
      <point x="301" y="819.667"/>
    </contour>
  </outline>
</glyph>
<glyph name="uni0426" format="2">
  <advance width="710"/>
  <unicode hex="0426"/>
  <outline>
    <contour>
      <point x="562.667" y="0" type="line"/>
      <point x="63.3333" y="0" type="line"/>
      <point x="63.3333" y="722" type="line"/>
      <point x="193.667" y="722" type="line"/>
      <point x="193.667" y="105.667" type="line"/>
      <point x="495.333" y="105.667" type="line"/>
      <point x="495.333" y="722" type="line"/>
      <point x="625.667" y="722" type="line"/>
      <point x="625.667" y="109" type="line"/>
      <point x="685.667" y="109" type="line"/>
      <point x="685.667" y="-149.667" type="line"/>
      <point x="562.667" y="-149.667" type="line"/>
    </contour>
  </outline>
</glyph>
<glyph name="uni042A" format="2">
  <advance width="701"/>
  <unicode hex="042A"/>
  <outline>
    <contour>
      <point x="650" y="213.333" type="curve" smooth="yes"/>
      <point x="650" y="36.6667"/>
      <point x="522.667" y="0"/>
      <point x="354.333" y="0" type="curve" smooth="yes"/>
      <point x="137" y="0" type="line"/>
      <point x="137" y="613" type="line"/>
      <point x="12.6667" y="613" type="line"/>
      <point x="12.6667" y="722" type="line"/>
      <point x="267.333" y="722" type="line"/>
      <point x="267.333" y="426.667" type="line"/>
      <point x="354.333" y="426.667" type="line" smooth="yes"/>
      <point x="526.333" y="426.667"/>
      <point x="650" y="383.333"/>
    </contour>
    <contour>
      <point x="357.333" y="315.667" type="curve" smooth="yes"/>
      <point x="267.333" y="315.667" type="line"/>
      <point x="267.333" y="108" type="line"/>
      <point x="357.333" y="108" type="line" smooth="yes"/>
      <point x="454" y="108"/>
      <point x="517.667" y="127.667"/>
      <point x="517.667" y="213.333" type="curve" smooth="yes"/>
      <point x="517.667" y="298.333"/>
      <point x="455" y="315.667"/>
    </contour>
  </outline>
</glyph>
<glyph name="uni0431" format="2">
  <advance width="607"/>
  <unicode hex="0431"/>
  <outline>
    <contour>
      <point x="50" y="266.667" type="curve" smooth="yes"/>
      <point x="50" y="588.333"/>
      <point x="168.138" y="653.862"/>
      <point x="300.01" y="677.23" type="curve" smooth="yes"/>
      <point x="381.507" y="691.754"/>
      <point x="430.95" y="706.017"/>
      <point x="450.288" y="722" type="curve"/>
      <point x="532.667" y="722" type="line"/>
      <point x="517.983" y="648.584"/>
      <point x="481.896" y="593.758"/>
      <point x="375.099" y="583" type="curve" smooth="yes"/>
      <point x="221.169" y="568.026"/>
      <point x="160.241" y="537.378"/>
      <point x="140.421" y="421.667" type="curve"/>
      <point x="141.747" y="421.333" type="line"/>
      <point x="187.686" y="490"/>
      <point x="255.765" y="511.333"/>
      <point x="323.283" y="511.333" type="curve" smooth="yes"/>
      <point x="453" y="511.333"/>
      <point x="557.333" y="398.333"/>
      <point x="557.333" y="258.333" type="curve" smooth="yes"/>
      <point x="557.333" y="110.333"/>
      <point x="465.667" y="-13.3333"/>
      <point x="299.3" y="-13.3333" type="curve" smooth="yes"/>
      <point x="136.084" y="-13.3333"/>
      <point x="50" y="106"/>
    </contour>
    <contour>
      <point x="174.667" y="262.333" type="curve" smooth="yes"/>
      <point x="174.667" y="166.667"/>
      <point x="202.707" y="65"/>
      <point x="301.479" y="65" type="curve" smooth="yes"/>
      <point x="399.945" y="65"/>
      <point x="432.333" y="166"/>
      <point x="432.333" y="254.334" type="curve" smooth="yes"/>
      <point x="432.333" y="351.333"/>
      <point x="394.95" y="434.333"/>
      <point x="306.2" y="434.333" type="curve" smooth="yes"/>
      <point x="215.062" y="434.333"/>
      <point x="174.667" y="346.667"/>
    </contour>
  </outline>
</glyph>
<glyph name="uni0432" format="2">
  <advance width="535"/>
  <unicode hex="0432"/>
  <outline>
    <contour>
      <point x="180" y="300" type="line"/>
      <point x="271.333" y="300" type="line" smooth="yes"/>
      <point x="315.333" y="300"/>
      <point x="340.667" y="318.667"/>
      <point x="340.667" y="357.667" type="curve" smooth="yes"/>
      <point x="340.667" y="395.667"/>
      <point x="316.667" y="415"/>
      <point x="273.333" y="415" type="curve" smooth="yes"/>
      <point x="180" y="415" type="line"/>
    </contour>
    <contour>
      <point x="180" y="85" type="line"/>
      <point x="286" y="85" type="line" smooth="yes"/>
      <point x="337" y="85"/>
      <point x="365.333" y="97.6667"/>
      <point x="365.333" y="146.838" type="curve" smooth="yes"/>
      <point x="365.333" y="199"/>
      <point x="333.333" y="215"/>
      <point x="278" y="215" type="curve" smooth="yes"/>
      <point x="180" y="215" type="line"/>
    </contour>
    <contour>
      <point x="66.6667" y="0" type="line"/>
      <point x="66.6667" y="500" type="line"/>
      <point x="300" y="500" type="line" smooth="yes"/>
      <point x="398" y="500"/>
      <point x="455.333" y="457.333"/>
      <point x="455.333" y="377.333" type="curve" smooth="yes"/>
      <point x="455.333" y="334"/>
      <point x="422" y="286.667"/>
      <point x="376.667" y="271.667" type="curve"/>
      <point x="376.667" y="273.667" type="line"/>
      <point x="429" y="262"/>
      <point x="482.667" y="227"/>
      <point x="482.667" y="143" type="curve" smooth="yes"/>
      <point x="482.667" y="56.6667"/>
      <point x="425.333" y="0"/>
      <point x="311.333" y="0" type="curve" smooth="yes"/>
    </contour>
  </outline>
</glyph>
<glyph name="uni0437" format="2">
  <advance width="545"/>
  <unicode hex="0437"/>
  <outline>
    <contour>
      <point x="491.667" y="149.333" type="curve" smooth="yes"/>
      <point x="491.667" y="56.3333"/>
      <point x="416.333" y="-14"/>
      <point x="283" y="-14" type="curve" smooth="yes"/>
      <point x="150.667" y="-14"/>
      <point x="65.6667" y="43"/>
      <point x="53.3333" y="169.333" type="curve"/>
      <point x="167" y="169.333" type="line"/>
      <point x="174.667" y="107"/>
      <point x="221" y="72.3333"/>
      <point x="278" y="72.3333" type="curve" smooth="yes"/>
      <point x="337" y="72.3333"/>
      <point x="366.667" y="102"/>
      <point x="366.667" y="143" type="curve" smooth="yes"/>
      <point x="366.667" y="186"/>
      <point x="337.333" y="212"/>
      <point x="289.333" y="212" type="curve" smooth="yes"/>
      <point x="238.667" y="212" type="line"/>
      <point x="238.667" y="298.333" type="line"/>
      <point x="288" y="298.333" type="line" smooth="yes"/>
      <point x="333" y="298.333"/>
      <point x="357.333" y="324"/>
      <point x="357.333" y="362" type="curve" smooth="yes"/>
      <point x="357.333" y="399.667"/>
      <point x="330" y="427.667"/>
      <point x="273" y="427.667" type="curve" smooth="yes"/>
      <point x="217" y="427.667"/>
      <point x="184" y="402.333"/>
      <point x="175" y="351.667" type="curve"/>
      <point x="61.3333" y="351.667" type="line"/>
      <point x="68.6667" y="441"/>
      <point x="144" y="514"/>
      <point x="271.333" y="514" type="curve" smooth="yes"/>
      <point x="401.333" y="514"/>
      <point x="475.667" y="462"/>
      <point x="475.667" y="370.667" type="curve" smooth="yes"/>
      <point x="475.667" y="322.667"/>
      <point x="443" y="283"/>
      <point x="391.667" y="270.333" type="curve"/>
      <point x="391.667" y="274.333" type="line"/>
      <point x="453" y="260"/>
      <point x="491.667" y="215.333"/>
    </contour>
  </outline>
</glyph>
<glyph name="uni0439" format="2">
  <advance width="598"/>
  <unicode hex="0439"/>
  <outline>
    <component base="uni0438"/>
    <component base="uni0438"/>
    <contour>
      <point x="261.333" y="694" type="curve"/>
      <point x="298" y="678.667"/>
      <point x="342.667" y="697"/>
      <point x="359" y="717" type="curve"/>
      <point x="383.958" y="717"/>
      <point x="418.24" y="724.667"/>
      <point x="430.333" y="740.667" type="curve"/>
      <point x="426.491" y="685.333"/>
      <point x="398.226" y="640.667"/>
      <point x="340" y="640.667" type="curve"/>
      <point x="273" y="611.333"/>
      <point x="219.667" y="634.667"/>
      <point x="185.333" y="694.667" type="curve"/>
      <point x="165.017" y="694.667"/>
      <point x="172.938" y="711.333"/>
      <point x="179.333" y="740.667" type="curve"/>
      <point x="181.148" y="720.667"/>
      <point x="224.975" y="694"/>
    </contour>
  </outline>
</glyph>
<glyph name="uni043B" format="2">
  <advance width="587"/>
  <unicode hex="043B"/>
  <outline>
    <contour>
      <point x="37.3333" y="95" type="line"/>
      <point x="43.3333" y="93"/>
      <point x="60" y="91"/>
      <point x="67" y="91" type="curve" smooth="yes"/>
      <point x="110.866" y="91"/>
      <point x="125.985" y="151.36"/>
      <point x="134.667" y="372" type="curve" smooth="yes"/>
      <point x="139.667" y="500" type="line"/>
      <point x="520" y="500" type="line"/>
      <point x="520" y="0" type="line"/>
      <point x="400" y="0" type="line"/>
      <point x="400" y="415" type="line"/>
      <point x="256.667" y="415" type="line"/>
      <point x="253" y="313.667" type="line" smooth="yes"/>
      <point x="244.79" y="86.4116"/>
      <point x="203.655" y="-7"/>
      <point x="93.6667" y="-7" type="curve" smooth="yes"/>
      <point x="62.6667" y="-7"/>
      <point x="52.6667" y="-4.33333"/>
      <point x="37.3333" y="-1.33333" type="curve"/>
    </contour>
  </outline>
</glyph>
<glyph name="uni0447" format="2">
  <advance width="560"/>
  <unicode hex="0447"/>
  <outline>
    <contour>
      <point x="56.6667" y="330.333" type="curve" smooth="yes"/>
      <point x="56.6667" y="500" type="line"/>
      <point x="176.667" y="500" type="line"/>
      <point x="176.667" y="336.333" type="line" smooth="yes"/>
      <point x="176.667" y="276.333"/>
      <point x="207.333" y="235.333"/>
      <point x="267" y="235.333" type="curve" smooth="yes"/>
      <point x="319.667" y="235.333"/>
      <point x="366.333" y="267.333"/>
      <point x="373.667" y="309.333" type="curve"/>
      <point x="373.667" y="500" type="line"/>
      <point x="493.667" y="500" type="line"/>
      <point x="493.667" y="0" type="line"/>
      <point x="373.667" y="0" type="line"/>
      <point x="373.667" y="183" type="line"/>
      <point x="342.333" y="160.333"/>
      <point x="295.333" y="148.667"/>
      <point x="244.333" y="148.667" type="curve" smooth="yes"/>
      <point x="120" y="148.667"/>
      <point x="56.6667" y="208.667"/>
    </contour>
  </outline>
</glyph>
<glyph name="uni044D" format="2">
  <advance width="588"/>
  <unicode hex="044D"/>
  <outline>
    <contour>
      <point x="49.3333" y="163.333" type="curve"/>
      <point x="168" y="163.333" type="line"/>
      <point x="188.667" y="112.667"/>
      <point x="224.333" y="72"/>
      <point x="285.667" y="72" type="curve" smooth="yes"/>
      <point x="367" y="72"/>
      <point x="403" y="132.333"/>
      <point x="413.333" y="204.333" type="curve"/>
      <point x="201" y="204.333" type="line"/>
      <point x="201" y="288.667" type="line"/>
      <point x="414.333" y="288.667" type="line"/>
      <point x="403.333" y="361"/>
      <point x="365.667" y="424"/>
      <point x="284.667" y="424" type="curve" smooth="yes"/>
      <point x="233.333" y="424"/>
      <point x="197.333" y="393.333"/>
      <point x="173.667" y="347" type="curve"/>
      <point x="51" y="347" type="line"/>
      <point x="87" y="444.667"/>
      <point x="177.667" y="509.333"/>
      <point x="285.667" y="509.333" type="curve" smooth="yes"/>
      <point x="442.667" y="509.333"/>
      <point x="539" y="407.333"/>
      <point x="539" y="248" type="curve" smooth="yes"/>
      <point x="539" y="88.6667"/>
      <point x="442.667" y="-13.3333"/>
      <point x="285.667" y="-13.3333" type="curve" smooth="yes"/>
      <point x="170.667" y="-13.3333"/>
      <point x="81.6667" y="57.3333"/>
    </contour>
  </outline>
</glyph>
<glyph name="uni044E" format="2">
  <advance width="804"/>
  <unicode hex="044E"/>
  <outline>
    <contour>
      <point x="66.6667" y="0" type="line"/>
      <point x="66.6667" y="500" type="line"/>
      <point x="186.667" y="500" type="line"/>
      <point x="186.667" y="304" type="line"/>
      <point x="264.667" y="304" type="line"/>
      <point x="283.333" y="432.276"/>
      <point x="375" y="512.667"/>
      <point x="517.515" y="512.667" type="curve" smooth="yes"/>
      <point x="705" y="512.667"/>
      <point x="754.667" y="373.582"/>
      <point x="754.667" y="248.687" type="curve" smooth="yes"/>
      <point x="754.667" y="80.3333"/>
      <point x="649" y="-12.6667"/>
      <point x="510.99" y="-12.6667" type="curve" smooth="yes"/>
      <point x="365.333" y="-12.6667"/>
      <point x="275" y="71"/>
      <point x="263.667" y="217.667" type="curve"/>
      <point x="186.667" y="217.667" type="line"/>
      <point x="186.667" y="0" type="line"/>
    </contour>
    <contour>
      <point x="388.667" y="248.902" type="curve" smooth="yes"/>
      <point x="388.667" y="152"/>
      <point x="431.667" y="75"/>
      <point x="509" y="75" type="curve" smooth="yes"/>
      <point x="590.667" y="75"/>
      <point x="629.667" y="158"/>
      <point x="629.667" y="251.524" type="curve" smooth="yes"/>
      <point x="629.667" y="349.18"/>
      <point x="587.333" y="427.667"/>
      <point x="511" y="427.667" type="curve" smooth="yes"/>
      <point x="433.333" y="427.667"/>
      <point x="388.667" y="347.502"/>
    </contour>
  </outline>
</glyph>
<glyph name="uni0457" format="2">
  <advance width="252"/>
  <unicode hex="0457"/>
  <outline>
    <contour>
      <point x="248" y="382" type="line"/>
      <point x="144.667" y="382" type="line"/>
      <point x="144.667" y="628.667" type="line"/>
      <point x="248" y="628.667" type="line"/>
    </contour>
    <contour>
      <point x="74.6667" y="573" type="line"/>
      <point x="-28.6667" y="573" type="line"/>
      <point x="-28.6667" y="683.667" type="line"/>
      <point x="78" y="683.667" type="line"/>
    </contour>
    <contour>
      <point x="220" y="191" type="line"/>
      <point x="100" y="191" type="line"/>
      <point x="100" y="555" type="line"/>
      <point x="220" y="555" type="line"/>
    </contour>
  </outline>
</glyph>
<glyph name="uni1E1D" format="2">
  <advance width="558"/>
  <unicode hex="1E1D"/>
  <anchor x="278" y="593.333" name="top"/>
  <outline>
    <contour>
      <point x="49.3333" y="244" type="curve" smooth="yes"/>
      <point x="49.3333" y="401.667"/>
      <point x="125.333" y="513.333"/>
      <point x="284.333" y="513.333" type="curve" smooth="yes"/>
      <point x="438" y="513.333"/>
      <point x="508.667" y="408.333"/>
      <point x="508.667" y="268" type="curve" smooth="yes"/>
      <point x="508.667" y="227.333" type="line"/>
      <point x="174" y="227.333" type="line"/>
      <point x="174" y="146"/>
      <point x="196" y="65"/>
      <point x="283" y="65" type="curve" smooth="yes"/>
      <point x="344" y="65"/>
      <point x="375.667" y="104.667"/>
      <point x="381.667" y="157.333" type="curve"/>
      <point x="504.333" y="157.333" type="line"/>
      <point x="490.333" y="47"/>
      <point x="414" y="-14"/>
      <point x="280.333" y="-14" type="curve" smooth="yes"/>
      <point x="118.667" y="-14"/>
      <point x="49.3333" y="93.3333"/>
    </contour>
    <contour>
      <point x="174" y="305.667" type="curve"/>
      <point x="384" y="305.667" type="line"/>
      <point x="384" y="370.333"/>
      <point x="359.667" y="435"/>
      <point x="280.333" y="435" type="curve" smooth="yes"/>
      <point x="209.667" y="435"/>
      <point x="174" y="383"/>
    </contour>
    <contour>
      <point x="383.711" y="-159.743" type="curve" smooth="yes"/>
      <point x="383.711" y="-223.917"/>
      <point x="340.2" y="-254"/>
      <point x="269.888" y="-254" type="curve" smooth="yes"/>
      <point x="244.888" y="-254"/>
      <point x="222.512" y="-251.601"/>
      <point x="188.213" y="-245" type="curve"/>
      <point x="188.213" y="-188.333" type="line"/>
      <point x="218.496" y="-198.409"/>
      <point x="247.037" y="-201"/>
      <point x="267.105" y="-201" type="curve" smooth="yes"/>
      <point x="287.678" y="-201"/>
      <point x="303.378" y="-184.887"/>
      <point x="303.378" y="-160.743" type="curve" smooth="yes"/>
      <point x="303.378" y="-124.769"/>
      <point x="263.27" y="-110.333"/>
      <point x="228.043" y="-110.333" type="curve" smooth="yes"/>
      <point x="193.045" y="-110.333" type="line"/>
      <point x="255.711" y="16.3333" type="line"/>
      <point x="318.711" y="16.3333" type="line"/>
      <point x="275.448" y="-64.7225" type="line"/>
      <point x="350.73" y="-64.7225"/>
      <point x="383.711" y="-94.4675"/>
    </contour>
    <contour>
      <point x="125" y="732.333" type="curve"/>
      <point x="182.333" y="732.333" type="line"/>
      <point x="184.333" y="702"/>
      <point x="233" y="668"/>
      <point x="278.333" y="668" type="curve" smooth="yes"/>
      <point x="323.667" y="668"/>
      <point x="373.667" y="702"/>
      <point x="375.667" y="732.333" type="curve"/>
      <point x="432.333" y="732.333" type="line"/>
      <point x="422" y="655"/>
      <point x="363" y="593.333"/>
      <point x="278.667" y="593.333" type="curve" smooth="yes"/>
      <point x="189.667" y="593.333"/>
      <point x="133" y="650.333"/>
    </contour>
  </outline>
</glyph>
<glyph name="uni1EC1" format="2">
  <advance width="547"/>
  <unicode hex="1EC1"/>
  <anchor x="271.667" y="543.333" name="_top"/>
  <outline>
    <component base="ecircumflex"/>
    <contour>
      <point x="357" y="803.333" type="line"/>
      <point x="290" y="803.333" type="line"/>
      <point x="142.667" y="980.333" type="line"/>
      <point x="263" y="980.333" type="line"/>
    </contour>
  </outline>
</glyph>
<glyph name="uni1EC4" format="2">
  <advance width="610"/>
  <unicode hex="1EC4"/>
  <anchor x="296.333" y="797" name="_top"/>
  <anchor x="296.333" y="797" name="top"/>
  <outline>
    <contour>
      <point x="139.333" y="1028.33" type="line"/>
      <point x="145.333" y="1086.33"/>
      <point x="180" y="1132.33"/>
      <point x="229.543" y="1132.33" type="curve" smooth="yes"/>
      <point x="253.886" y="1132.33"/>
      <point x="279.738" y="1122.36"/>
      <point x="303.013" y="1110.9" type="curve" smooth="yes"/>
      <point x="322.838" y="1101.14"/>
      <point x="341.654" y="1093.67"/>
      <point x="356.821" y="1093.67" type="curve" smooth="yes"/>
      <point x="375.667" y="1093.67"/>
      <point x="391.333" y="1106.33"/>
      <point x="396.667" y="1131.33" type="curve"/>
      <point x="449" y="1131.33" type="line"/>
      <point x="443.333" y="1073"/>
      <point x="409.667" y="1025.33"/>
      <point x="359.472" y="1025.33" type="curve" smooth="yes"/>
      <point x="335.332" y="1025.33"/>
      <point x="310.419" y="1035.3"/>
      <point x="288.008" y="1046.42" type="curve" smooth="yes"/>
      <point x="267.812" y="1056.43"/>
      <point x="248.517" y="1064"/>
      <point x="232.228" y="1064" type="curve" smooth="yes"/>
      <point x="214.333" y="1064"/>
      <point x="198" y="1053.33"/>
      <point x="192.333" y="1028.33" type="curve"/>
    </contour>
    <contour>
      <point x="66.6667" y="0" type="line"/>
      <point x="66.6667" y="722" type="line"/>
      <point x="533.667" y="722" type="line"/>
      <point x="533.667" y="616.333" type="line"/>
      <point x="200" y="616.333" type="line"/>
      <point x="200" y="423.667" type="line"/>
      <point x="517" y="423.667" type="line"/>
      <point x="517" y="321.333" type="line"/>
      <point x="200" y="321.333" type="line"/>
      <point x="200" y="105.667" type="line"/>
      <point x="543.667" y="105.667" type="line"/>
      <point x="543.667" y="0" type="line"/>
    </contour>
    <contour>
      <point x="452.667" y="797" type="line"/>
      <point x="386" y="797" type="line"/>
      <point x="297.667" y="907" type="line"/>
      <point x="209.333" y="797" type="line"/>
      <point x="142.667" y="797" type="line"/>
      <point x="232.667" y="973.667" type="line"/>
      <point x="362.667" y="973.667" type="line"/>
    </contour>
  </outline>
</glyph>
<glyph name="uni1ED3" format="2">
  <advance width="597"/>
  <unicode hex="1ED3"/>
  <anchor x="296" y="543.333" name="_top"/>
  <outline>
    <component base="ocircumflex"/>
    <contour>
      <point x="381.333" y="800" type="line"/>
      <point x="314.333" y="800" type="line"/>
      <point x="167" y="977" type="line"/>
      <point x="287.333" y="977" type="line"/>
    </contour>
  </outline>
</glyph>
<glyph name="uni2010" format="2">
  <advance width="327"/>
  <unicode hex="2010"/>
  <outline>
    <contour>
      <point x="116.667" y="216.333" type="line"/>
      <point x="40" y="303.667" type="line"/>
      <point x="211.333" y="324.333" type="line"/>
      <point x="288" y="237" type="line"/>
    </contour>
  </outline>
</glyph>
<glyph name="quotedblright" format="2">
  <advance width="462"/>
  <unicode hex="201D"/>
  <outline>
    <contour>
      <point x="370.333" y="722" type="line"/>
      <point x="253.667" y="470.667" type="line"/>
      <point x="167" y="470.667" type="line"/>
      <point x="239.667" y="722" type="line"/>
    </contour>
    <contour>
      <point x="297.333" y="722" type="line"/>
      <point x="180.667" y="470.667" type="line"/>
      <point x="94" y="470.667" type="line"/>
      <point x="166.667" y="722" type="line"/>
    </contour>
  </outline>
</glyph>
<glyph name="approxequal" format="2">
  <advance width="1000"/>
  <unicode hex="2248"/>
  <outline>
    <contour>
      <point x="798" y="180.236" type="line"/>
      <point x="752" y="138.806"/>
      <point x="693" y="113"/>
      <point x="625" y="113" type="curve" smooth="yes"/>
      <point x="598.598" y="113"/>
      <point x="545.899" y="127.06"/>
      <point x="492.034" y="143.454" type="curve" smooth="yes"/>
      <point x="436.014" y="160.504"/>
      <point x="378.153" y="176.007"/>
      <point x="348" y="176" type="curve" smooth="yes"/>
      <point x="288" y="175.975"/>
      <point x="249" y="154.29"/>
      <point x="196" y="100" type="curve"/>
      <point x="196" y="210.806" type="line"/>
      <point x="241" y="256.521"/>
      <point x="297" y="280"/>
      <point x="364" y="280" type="curve"/>
      <point x="387.547" y="278.995"/>
      <point x="438.384" y="265.786"/>
      <point x="490.744" y="250.4" type="curve" smooth="yes"/>
      <point x="549.831" y="233.037"/>
      <point x="611.43" y="217"/>
      <point x="640" y="217" type="curve" smooth="yes"/>
      <point x="703" y="217"/>
      <point x="741" y="239.446"/>
      <point x="798" y="291.375" type="curve"/>
    </contour>
    <contour>
      <point x="800" y="391" type="line"/>
      <point x="754" y="347.806"/>
      <point x="695" y="322"/>
      <point x="627" y="322" type="curve" smooth="yes"/>
      <point x="600.598" y="322"/>
      <point x="547.899" y="336.539"/>
      <point x="494.034" y="353.421" type="curve" smooth="yes"/>
      <point x="438.021" y="370.977"/>
      <point x="380.153" y="387"/>
      <point x="350" y="387" type="curve"/>
      <point x="290" y="384.968"/>
      <point x="251" y="363.29"/>
      <point x="198" y="310.625" type="curve"/>
      <point x="198" y="419.806" type="line"/>
      <point x="243" y="465"/>
      <point x="298.985" y="485.702"/>
      <point x="356.053" y="485.64" type="curve" smooth="yes"/>
      <point x="404.965" y="485.587"/>
      <point x="455.507" y="471.281"/>
      <point x="505.383" y="455.19" type="curve" smooth="yes"/>
      <point x="553.68" y="439.608"/>
      <point x="601.899" y="426"/>
      <point x="647.089" y="426" type="curve" smooth="yes"/>
      <point x="705" y="426"/>
      <point x="743" y="449"/>
      <point x="800" y="500" type="curve"/>
    </contour>
  </outline>
</glyph>
<glyph name="lozenge" format="2">
  <advance width="536"/>
  <unicode hex="25CA"/>
  <outline>
    <contour>
      <point x="502" y="392" type="line"/>
      <point x="300" y="0" type="line"/>
      <point x="237" y="0" type="line"/>
      <point x="35" y="392" type="line"/>
      <point x="237" y="776" type="line"/>
      <point x="300" y="776" type="line"/>
    </contour>
    <contour>
      <point x="397.697" y="390.89" type="line"/>
      <point x="268.877" y="637.23" type="line"/>
      <point x="139.303" y="390.89" type="line"/>
      <point x="268.877" y="137.77" type="line"/>
    </contour>
  </outline>
</glyph>
<glyph name="uni0414.loclBGR" format="2">
  <advance width="711"/>
  <outline>
    <contour>
      <point x="205.667" y="106.333" type="curve"/>
      <point x="497.667" y="106.333" type="line"/>
      <point x="460.21" y="216.497"/>
      <point x="391.458" y="425.182"/>
      <point x="352" y="544" type="curve"/>
      <point x="311.923" y="425.993"/>
      <point x="246.056" y="228.605"/>
    </contour>
    <contour>
      <point x="686.333" y="-147.667" type="line"/>
      <point x="563.667" y="-147.667" type="line"/>
      <point x="563.667" y="0" type="line"/>
      <point x="135.667" y="0" type="line"/>
      <point x="135.667" y="-147.667" type="line"/>
      <point x="12.6667" y="-147.667" type="line"/>
      <point x="12.6667" y="106.333" type="line"/>
      <point x="71" y="106.333" type="line"/>
      <point x="129.793" y="271.115"/>
      <point x="230.615" y="558.094"/>
      <point x="288.667" y="722" type="curve"/>
      <point x="412.667" y="722" type="line"/>
      <point x="629.667" y="106.333" type="line"/>
      <point x="685.667" y="106.333" type="line"/>
    </contour>
  </outline>
</glyph>
<glyph name="uni0424.loclBGR" format="2">
  <advance width="751"/>
  <outline>
    <contour>
      <point x="144.333" y="366.333" type="curve" smooth="yes"/>
      <point x="144.333" y="236.93"/>
      <point x="213.173" y="119"/>
      <point x="290.667" y="117" type="curve"/>
      <point x="314.667" y="117" type="line"/>
      <point x="314.667" y="600.333" type="line"/>
      <point x="289.333" y="600.333" type="line"/>
      <point x="213.406" y="598.333"/>
      <point x="144.333" y="485.625"/>
    </contour>
    <contour>
      <point x="12" y="366.333" type="curve" smooth="yes"/>
      <point x="12" y="547.799"/>
      <point x="134.497" y="710.667"/>
      <point x="291.667" y="710.667" type="curve" smooth="yes"/>
      <point x="314.667" y="710.667" type="line"/>
      <point x="314.667" y="777" type="line"/>
      <point x="444.667" y="777" type="line"/>
      <point x="444.667" y="709.667" type="line"/>
      <point x="467.691" y="709.667" type="line" smooth="yes"/>
      <point x="629.725" y="709.667"/>
      <point x="757.667" y="547.663"/>
      <point x="757.667" y="366.333" type="curve" smooth="yes"/>
      <point x="757.667" y="170.905"/>
      <point x="633.058" y="7.33333"/>
      <point x="469.025" y="7.33333" type="curve" smooth="yes"/>
      <point x="444.667" y="7.33333" type="line"/>
      <point x="444.667" y="-57" type="line"/>
      <point x="314.667" y="-57" type="line"/>
      <point x="314.667" y="7.33333" type="line"/>
      <point x="290.333" y="7.33333" type="line" smooth="yes"/>
      <point x="129.762" y="7.33333"/>
      <point x="12" y="170.24"/>
    </contour>
    <contour>
      <point x="444.667" y="117.667" type="line"/>
      <point x="470.03" y="117.667" type="line"/>
      <point x="550.541" y="119.667"/>
      <point x="625.333" y="236.311"/>
      <point x="625.333" y="366.333" type="curve" smooth="yes"/>
      <point x="625.333" y="484.923"/>
      <point x="549.958" y="600.333"/>
      <point x="470.03" y="600.333" type="curve" smooth="yes"/>
      <point x="444.667" y="600.333" type="line"/>
    </contour>
  </outline>
</glyph>
<glyph name="uni043B.loclBGR" format="2">
  <advance width="544"/>
  <outline>
    <contour>
      <point x="20" y="0" type="line"/>
      <point x="212.667" y="500" type="line"/>
      <point x="330" y="500" type="line"/>
      <point x="523.667" y="0" type="line"/>
      <point x="390" y="0" type="line"/>
      <point x="267" y="342" type="line"/>
      <point x="144.333" y="0" type="line"/>
    </contour>
  </outline>
</glyph>
<glyph name="uni0443.ss01" format="2">
  <advance width="537"/>
  <outline>
    <contour>
      <point x="113.578" y="-198.667" type="curve"/>
      <point x="248.733" y="-198.667" type="line"/>
      <point x="354.673" y="18.122"/>
      <point x="461.522" y="245.542"/>
      <point x="527" y="500" type="curve"/>
      <point x="399.333" y="500" type="line"/>
      <point x="342.213" y="264.796"/>
      <point x="228.887" y="17.6982"/>
    </contour>
    <contour>
      <point x="300.788" y="122.373" type="line"/>
      <point x="263.84" y="270.802"/>
      <point x="217.226" y="373.618"/>
      <point x="147" y="500" type="curve"/>
      <point x="10" y="500" type="line"/>
      <point x="112.939" y="326.99"/>
      <point x="177.909" y="194.712"/>
      <point x="241.83" y="-25.3954" type="curve"/>
    </contour>
  </outline>
</glyph>
